<svg xmlns="http://www.w3.org/2000/svg" viewBox="0 0 24 24"><defs><style>.a{fill:#de5c3d;}.b{fill:#bc452e;}.c{fill:#912f21;}</style></defs><path class="a" d="M13.058,10.074a11.685,11.685,0,0,1-.688-2.75h-.74a11.685,11.685,0,0,1-.688,2.75,5.915,5.915,0,0,0-.37,2.327S10.555,14.817,12,14.817h0c1.446,0,1.428-2.416,1.428-2.416A5.915,5.915,0,0,0,13.058,10.074Z"/><path class="b" d="M13.058,10.074A10.536,10.536,0,0,1,12.4,7.5a10.152,10.152,0,0,0,.151,2.558,5.919,5.919,0,0,1-.091,2.355s-.322,1.684-1.272,2.046a1.07,1.07,0,0,0,.817.361c1.446,0,1.428-2.416,1.428-2.416A5.915,5.915,0,0,0,13.058,10.074Z"/><path class="a" d="M14.116,18.449a2.476,2.476,0,0,0-1.129-2.4c-.458-.176-.986-1.232-.987-1.234h0s-.529,1.058-.987,1.234a2.476,2.476,0,0,0-1.129,2.4c0,1.445.353,3.279,2.116,3.279h0C13.763,21.727,14.116,19.894,14.116,18.449Z"/><path class="b" d="M13.6,16.58a4,4,0,0,1-.076.912c-.279,1.419-.979,3.15-2.709,2.81a1.966,1.966,0,0,1-.761-.313A1.97,1.97,0,0,0,12,21.728c1.763,0,2.116-1.834,2.116-3.279A3.2,3.2,0,0,0,13.6,16.58Z"/><path class="a" d="M12,3.71h0a2.73,2.73,0,0,0-1.422,2.221c0,1.481,1.052,1.393,1.052,1.393h.74s1.051.088,1.051-1.393A2.728,2.728,0,0,0,12,3.71Z"/><path class="b" d="M12.338,3.933a2.446,2.446,0,0,1,.272,1.958C12.173,7.306,11.2,6.912,11.2,6.912L10.841,6.8l-.1-.031a.946.946,0,0,0,.888.552h.74s1.051.088,1.051-1.393A2.554,2.554,0,0,0,12.338,3.933Z"/><path class="c" d="M4.973,22.853l-.4-.277,2.289-3.328.172-3.07a.247.247,0,0,1,.113-.192l3.576-2.277.263.412-3.471,2.21-.169,3.013a.238.238,0,0,1-.043.125Z"/><path class="c" d="M1.3,15.3l-.109-.477,3.646-.833,2.819-2.326a.246.246,0,0,1,.156-.056h2.767V12.1H7.9L5.1,14.406a.259.259,0,0,1-.1.05Z"/><path class="c" d="M10.665,10.435l-3-3.557L3.453,5.314l.17-.458L7.9,6.443a.239.239,0,0,1,.1.071l3.04,3.6Z"/><path class="c" d="M10.737,5.077a3.41,3.41,0,0,1-1.582-1.8.244.244,0,0,1,.073-.247,5.318,5.318,0,0,0,1.386-1.887l.474.12A5.279,5.279,0,0,1,9.672,3.289a3.076,3.076,0,0,0,1.293,1.355Z"/><path class="c" d="M12,15.061a1.305,1.305,0,0,1-.957-.4,3.69,3.69,0,0,1-.715-2.264,6.034,6.034,0,0,1,.4-2.441,11.583,11.583,0,0,0,.661-2.668.244.244,0,0,1,.242-.212h.74a.245.245,0,0,1,.242.212,11.583,11.583,0,0,0,.661,2.668h0a6.071,6.071,0,0,1,.4,2.451,3.684,3.684,0,0,1-.714,2.253A1.306,1.306,0,0,1,12,15.061Zm-.159-7.493a10.494,10.494,0,0,1-.683,2.621,5.725,5.725,0,0,0-.342,2.2,3.285,3.285,0,0,0,.574,1.927.864.864,0,0,0,1.221,0,3.17,3.17,0,0,0,.573-1.916,5.747,5.747,0,0,0-.342-2.214h0a10.494,10.494,0,0,1-.683-2.621h-.318Z"/><path class="c" d="M12,21.972c-1.522,0-2.36-1.251-2.36-3.523a2.707,2.707,0,0,1,1.285-2.626,2.911,2.911,0,0,0,.854-1.111.244.244,0,0,1,.443,0,2.831,2.831,0,0,0,.853,1.108,2.707,2.707,0,0,1,1.285,2.626h0C14.36,20.721,13.522,21.972,12,21.972Zm0-6.653a2.388,2.388,0,0,1-.9.96c-.391.15-.972.852-.972,2.17,0,1.384.325,3.034,1.871,3.034s1.871-1.65,1.871-3.034h0c0-1.318-.581-2.02-.972-2.17A2.363,2.363,0,0,1,12,15.319Z"/><path class="c" d="M19.027,22.853,16.7,19.468a.232.232,0,0,1-.043-.124l-.169-3.013-3.471-2.21.263-.412,3.576,2.277a.242.242,0,0,1,.113.192l.172,3.07,2.288,3.328Z"/><path class="c" d="M22.7,15.3,19,14.456a.259.259,0,0,1-.1-.05L16.1,12.1h-2.68V11.61h2.767a.246.246,0,0,1,.156.056l2.819,2.326,3.646.833Z"/><path class="c" d="M13.336,10.434l-.374-.315L16,6.514a.248.248,0,0,1,.1-.071l4.274-1.587.17.458L16.334,6.879Z"/><path class="c" d="M12.4,7.569h-.763a1.191,1.191,0,0,1-.834-.309,1.726,1.726,0,0,1-.468-1.328A2.967,2.967,0,0,1,11.9,3.487a.242.242,0,0,1,.183-.007,2.965,2.965,0,0,1,1.583,2.451A1.73,1.73,0,0,1,13.2,7.259,1.205,1.205,0,0,1,12.4,7.569Zm-.029-.49h.021a.689.689,0,0,0,.481-.186,1.285,1.285,0,0,0,.3-.963A2.424,2.424,0,0,0,12,4a2.423,2.423,0,0,0-1.177,1.936,1.285,1.285,0,0,0,.3.963.694.694,0,0,0,.485.186h.758Z"/><path class="c" d="M13.263,5.077l-.228-.433.114.216-.115-.216a3.084,3.084,0,0,0,1.294-1.355,5.268,5.268,0,0,1-1.416-2.022l.474-.12a5.311,5.311,0,0,0,1.386,1.887.248.248,0,0,1,.073.248A3.411,3.411,0,0,1,13.263,5.077Z"/></svg>