<svg xmlns="http://www.w3.org/2000/svg" viewBox="0 0 24 24"><defs><style>.a{fill:#f37958;}.b{fill:#de5c3d;}.c{fill:#9e3422;}.d{fill:#f59381;}</style></defs><path class="a" d="M13.2,13.173c0-.689.218-3.373-.073-3.373s-.471-.58-.471-.871,1.052-.87,1.052-2.1S12,5.375,12,5.375s-1.7.217-1.7,1.451,1.052,1.813,1.052,2.1-.181.871-.471.871-.073,2.684-.073,3.373-1.378,1.995-1.378,4.461S10.948,22.676,12,22.676s2.575-2.575,2.575-5.042S13.2,13.862,13.2,13.173Z"/><path class="a" d="M13.2,13.173c0-.689.218-3.373-.073-3.373s-.471-.58-.471-.871,1.052-.87,1.052-2.1S12,5.375,12,5.375s-1.7.217-1.7,1.451,1.052,1.813,1.052,2.1-.181.871-.471.871-.073,2.684-.073,3.373-1.378,1.995-1.378,4.461S10.948,22.676,12,22.676s2.575-2.575,2.575-5.042S13.2,13.862,13.2,13.173Z"/><path class="b" d="M12,22.676c1.052,0,2.575-2.575,2.575-5.042a8.635,8.635,0,0,0-1.286-4.087,12.586,12.586,0,0,1,.377,3.9c-.2,1.433-1.38,3.752-3.882,2.362C10.3,21.415,11.264,22.676,12,22.676Z"/><path class="c" d="M10.665,10.505a4.923,4.923,0,0,1-2.6-2.076A14.271,14.271,0,0,1,7.441,7.04c-.361-.884-.7-1.719-1.186-1.748L6.284,4.8c.791.047,1.17.976,1.61,2.051A13.79,13.79,0,0,0,8.5,8.2a4.474,4.474,0,0,0,2.316,1.842Z"/><path class="c" d="M4.179,15.031v-.488c1.216,0,2.77-1.7,3.463-2.772.673-1.04,2.9-.547,3.154-.487l-.113.476c-.592-.14-2.217-.362-2.631.276C7.513,12.869,5.767,15.031,4.179,15.031Z"/><path class="c" d="M5.544,21.451l-.073-.483c1.545-.232,1.781-2.522,1.97-4.362.05-.484.1-.942.166-1.319.35-1.925,3.01-2.664,3.123-2.695l.128.472c-.025.007-2.476.69-2.77,2.311-.065.357-.112.806-.161,1.282C7.731,18.558,7.463,21.163,5.544,21.451Z"/><path class="c" d="M10.914,5.645c-.017-.358-.029-1.218.227-1.487a.359.359,0,0,1,.261-.116v.489a.127.127,0,0,0,.1-.039,3.051,3.051,0,0,0-.1,1.129Z"/><path class="c" d="M10.354,6.317c-.072-.065-1.772-1.61-1.772-2.955A6.943,6.943,0,0,1,8.961,1.08l.456.175a6.585,6.585,0,0,0-.346,2.107c0,1.127,1.594,2.578,1.611,2.592Z"/><path class="c" d="M12,22.92c-1.291,0-2.82-2.865-2.82-5.286a7.334,7.334,0,0,1,1.026-3.616,2.581,2.581,0,0,0,.353-.845c0-.165-.014-.457-.029-.8-.09-1.965-.063-2.525.13-2.727a.3.3,0,0,1,.216-.1.966.966,0,0,0,.226-.607,2.063,2.063,0,0,0-.2-.246,2.745,2.745,0,0,1-.851-1.876c0-1.432,1.84-1.683,1.918-1.693a.215.215,0,0,1,.062,0c.078.01,1.918.261,1.918,1.693A2.745,2.745,0,0,1,13.1,8.7a2.063,2.063,0,0,0-.2.246.936.936,0,0,0,.233.609.28.28,0,0,1,.209.093c.193.2.22.762.13,2.727-.015.339-.029.631-.029.8a2.581,2.581,0,0,0,.353.845,7.334,7.334,0,0,1,1.026,3.616C14.82,20.055,13.291,22.92,12,22.92Zm-.988-12.9a15.857,15.857,0,0,0,.006,2.33c.016.345.029.642.029.818a2.593,2.593,0,0,1-.408,1.073,6.806,6.806,0,0,0-.97,3.388c0,2.427,1.475,4.8,2.331,4.8s2.331-2.37,2.331-4.8a6.806,6.806,0,0,0-.97-3.388,2.593,2.593,0,0,1-.408-1.073c0-.176.013-.473.029-.818a15.857,15.857,0,0,0,.006-2.33c-.411-.125-.58-.8-.58-1.1,0-.188.137-.341.326-.552a2.266,2.266,0,0,0,.726-1.551c0-.925-1.245-1.169-1.46-1.2-.213.036-1.46.283-1.46,1.2a2.266,2.266,0,0,0,.726,1.551c.189.211.326.364.326.552C11.592,9.227,11.423,9.9,11.012,10.025Z"/><path class="c" d="M13.335,10.505l-.149-.466A4.5,4.5,0,0,0,15.5,8.2a14.026,14.026,0,0,0,.6-1.342c.44-1.075.819-2,1.61-2.051l.029.488c-.484.029-.825.864-1.186,1.748a14.271,14.271,0,0,1-.626,1.389A4.923,4.923,0,0,1,13.335,10.505Z"/><path class="c" d="M19.821,15.031c-1.587,0-3.334-2.162-3.873-3-.412-.636-2.079-.407-2.631-.276l-.113-.476c.252-.06,2.481-.553,3.154.487.694,1.071,2.247,2.772,3.463,2.772Z"/><path class="c" d="M18.456,21.451c-1.919-.288-2.187-2.893-2.383-4.8-.049-.475-.1-.924-.161-1.281-.295-1.625-2.745-2.3-2.77-2.311l.128-.472c.113.031,2.773.77,3.123,2.7.069.376.116.834.166,1.319.189,1.84.425,4.13,1.97,4.362Z"/><path class="c" d="M13.086,5.645,12.6,5.621a3.048,3.048,0,0,0-.1-1.129.127.127,0,0,0,.1.039V4.042a.359.359,0,0,1,.261.116C13.115,4.427,13.1,5.287,13.086,5.645Z"/><path class="c" d="M13.646,6.317l-.328-.363c.017-.014,1.611-1.465,1.611-2.592a6.585,6.585,0,0,0-.346-2.107l.456-.175a6.913,6.913,0,0,1,.379,2.282C15.418,4.707,13.718,6.252,13.646,6.317Z"/><path class="d" d="M11.473,14.758l-.431-.232a7.26,7.26,0,0,0-.7,4.533l.477-.109A6.867,6.867,0,0,1,11.473,14.758Z"/></svg>