<svg xmlns="http://www.w3.org/2000/svg" viewBox="0 0 24 24"><defs><style>.a{fill:#cc5036;}.b{fill:#ba3e2a;}.c{fill:#992720;}.d{fill:#e7614a;}</style></defs><path class="a" d="M13.543,16.219c-.728-.466-.815-1.63-.815-3.174s.67-1.572.67-2.795-.757-1.339-.757-1.863,1.252.145,1.252-2.068A1.97,1.97,0,0,0,12,4.106a1.97,1.97,0,0,0-1.893,2.213c0,2.213,1.252,1.543,1.252,2.068s-.757.64-.757,1.863.67,1.252.67,2.8-.087,2.708-.815,3.174A2.076,2.076,0,0,0,9.5,18.17,2.428,2.428,0,0,0,12,20.7a2.428,2.428,0,0,0,2.5-2.533A2.076,2.076,0,0,0,13.543,16.219Z"/><path class="b" d="M13.543,16.219a1.2,1.2,0,0,1-.27-.239,2.012,2.012,0,0,0,.112,1.235c.315.8-2.7,2.6-3.872,1.236A2.385,2.385,0,0,0,12,20.7a2.428,2.428,0,0,0,2.5-2.533A2.076,2.076,0,0,0,13.543,16.219Z"/><path class="c" d="M10.812,11.88a.889.889,0,0,1-.331-.065,2.6,2.6,0,0,1-1.211-1.55A12.781,12.781,0,0,0,6.328,6.1a.114.114,0,0,0,.033,0V5.619C7,5.619,9.08,8.5,9.722,10.08c.605,1.483,1.153,1.3,1.159,1.3l.2.447A.649.649,0,0,1,10.812,11.88Z"/><path class="c" d="M4.209,16.666l-.061-.485c.808-.1,2.76-2.027,3.809-3.061a9.733,9.733,0,0,1,.992-.922c.548-.343,1.792.76,2.484,1.448l-.345.347c-.789-.785-1.672-1.428-1.89-1.376-.1.064-.487.446-.9.851C6.722,15.024,5.106,16.553,4.209,16.666Z"/><path class="c" d="M5.712,22.918,5.69,22.43c.018,0,.446-.046,1.423-2.351a35.757,35.757,0,0,0,1.32-3.722A2.488,2.488,0,0,1,11.182,14.7l-.055.486c-.074-.008-1.805-.182-2.224,1.3C8.885,16.553,7.046,22.86,5.712,22.918Z"/><path class="c" d="M9.658,5.412A2.154,2.154,0,0,1,8.4,5.126a.575.575,0,0,1-.219-.41,1.6,1.6,0,0,1,.463-.96,2.451,2.451,0,0,0,.619-2.507l.46-.167A2.93,2.93,0,0,1,9.038,4.05c-.185.246-.376.5-.367.631a.093.093,0,0,0,.042.067,3.061,3.061,0,0,0,1.615.134l.061.485A6.257,6.257,0,0,1,9.658,5.412Z"/><path class="c" d="M12,20.948A2.667,2.667,0,0,1,9.251,18.17a2.3,2.3,0,0,1,1.074-2.157c.649-.415.7-1.641.7-2.968a2.913,2.913,0,0,0-.34-1.473,2.714,2.714,0,0,1-.33-1.322,2.076,2.076,0,0,1,.551-1.495c.131-.158.2-.248.206-.357a1.379,1.379,0,0,0-.146-.053c-.535-.174-1.106-.489-1.106-2.026A2.219,2.219,0,0,1,12,3.862a2.219,2.219,0,0,1,2.137,2.457c0,1.537-.571,1.852-1.106,2.026a1.354,1.354,0,0,0-.145.053c.006.112.076.2.205.357a2.076,2.076,0,0,1,.551,1.495,2.726,2.726,0,0,1-.329,1.322,2.9,2.9,0,0,0-.341,1.473c0,1.327.054,2.553.7,2.968a2.3,2.3,0,0,1,1.074,2.157A2.667,2.667,0,0,1,12,20.948Zm0-16.6a1.728,1.728,0,0,0-1.648,1.968c0,1.311.444,1.456.768,1.561.193.063.484.157.484.507a1.045,1.045,0,0,1-.318.68,1.608,1.608,0,0,0-.439,1.183,2.231,2.231,0,0,0,.282,1.111,3.409,3.409,0,0,1,.388,1.684c0,1.524-.07,2.831-.928,3.38A1.837,1.837,0,0,0,9.74,18.17a2.26,2.26,0,1,0,4.52,0,1.836,1.836,0,0,0-.849-1.745h0c-.858-.549-.927-1.856-.927-3.38a3.41,3.41,0,0,1,.387-1.684,2.231,2.231,0,0,0,.282-1.111,1.608,1.608,0,0,0-.439-1.183,1.045,1.045,0,0,1-.318-.68c0-.35.291-.444.484-.507.324-.1.768-.25.768-1.561C13.648,4.373,12.067,4.351,12,4.351Z"/><path class="c" d="M13.188,11.88a.649.649,0,0,1-.266-.05l.206-.443-.1.222.094-.226c.006,0,.554.18,1.159-1.3C14.92,8.5,17,5.619,17.639,5.619v.488a.114.114,0,0,0,.033,0,12.781,12.781,0,0,0-2.942,4.162,2.6,2.6,0,0,1-1.211,1.55A.889.889,0,0,1,13.188,11.88Z"/><path class="c" d="M19.791,16.666c-.9-.113-2.513-1.642-4.091-3.2-.411-.4-.8-.787-.908-.856a5.124,5.124,0,0,0-1.88,1.381l-.345-.347c.692-.688,1.935-1.791,2.484-1.448a9.733,9.733,0,0,1,.992.922c1.049,1.034,3,2.96,3.809,3.061Z"/><path class="c" d="M18.288,22.918c-1.333-.058-3.173-6.365-3.191-6.429-.421-1.491-2.15-1.311-2.223-1.3l-.056-.486a2.488,2.488,0,0,1,2.749,1.656,35.676,35.676,0,0,0,1.32,3.722c.977,2.3,1.405,2.35,1.423,2.351Z"/><path class="c" d="M14.342,5.412a6.257,6.257,0,0,1-.731-.045l.06-.485a3.062,3.062,0,0,0,1.616-.134.093.093,0,0,0,.042-.067c.009-.131-.182-.385-.367-.631a2.93,2.93,0,0,1-.688-2.968l.46.167a2.451,2.451,0,0,0,.619,2.507,1.6,1.6,0,0,1,.463.96.575.575,0,0,1-.219.41A2.154,2.154,0,0,1,14.342,5.412Z"/><path class="d" d="M11.25,16.39a1.954,1.954,0,0,0-1.093,1.487C10.126,18.855,10.52,17.052,11.25,16.39Z"/></svg>