<svg xmlns="http://www.w3.org/2000/svg" viewBox="0 0 24 24"><defs><style>.a{fill:#d7a979;}.b{fill:#c09065;}.c{fill:#754c28;}.d{fill:#ecbf96;}</style></defs><path class="a" d="M15.159,12.152c-.418-2.322-1.765-6.224-1.719-7.665A1.339,1.339,0,0,0,12,3.094a1.34,1.34,0,0,0-1.44,1.393c.046,1.441-1.3,5.343-1.719,7.665S8.33,19.864,12,20.328C15.67,19.864,15.577,14.475,15.159,12.152Z"/><path class="b" d="M15.159,12.152c-.418-2.322-1.765-6.224-1.719-7.665a1.675,1.675,0,0,0-.036-.416c-.065,1.691.6,5.237.686,7.383.093,2.355-.557,7.694-4.243,7.661A3.145,3.145,0,0,0,12,20.328C15.67,19.864,15.577,14.475,15.159,12.152Z"/><path class="c" d="M4.179,16.252v-.488c.7,0,2.931-2.15,2.931-3.612a1.567,1.567,0,0,1,.458-1.166,2.475,2.475,0,0,1,1.609-.575l-.01.489a2.007,2.007,0,0,0-1.258.436,1.088,1.088,0,0,0-.31.816C7.6,13.826,5.2,16.252,4.179,16.252Z"/><path class="c" d="M7.508,22.986,7.439,22.5A.582.582,0,0,0,7.9,22.21c.195-.333.369-1.281-.65-3.883-.414-1.058,1.252-1.951,1.443-2.049l.224.434c-.383.2-1.428.886-1.212,1.437.835,2.13,1.043,3.58.617,4.308A1.075,1.075,0,0,1,7.508,22.986Z"/><path class="c" d="M10.1,7.347a2.186,2.186,0,0,1-1.619-.69,1.388,1.388,0,0,1-.072-1.325A2.805,2.805,0,0,0,8.593,3.3a.921.921,0,0,0-.559-.485l.16-.462a1.411,1.411,0,0,1,.841.738A3.2,3.2,0,0,1,8.871,5.5a.938.938,0,0,0,.014.877,1.684,1.684,0,0,0,1.221.48Z"/><path class="c" d="M10.845,3.388c-.033-.2-.3-1.982.541-2.374l.207.443c-.361.168-.372,1.2-.266,1.852Z"/><path class="c" d="M12,20.573l-.031,0a3.4,3.4,0,0,1-2.4-1.412c-1.421-1.934-1.28-5.342-.972-7.05.172-.958.5-2.188.822-3.378A21.073,21.073,0,0,0,10.316,4.5a1.511,1.511,0,0,1,.411-1.169,1.939,1.939,0,0,1,2.547,0,1.514,1.514,0,0,1,.41,1.169,21.073,21.073,0,0,0,.893,4.236c.319,1.19.65,2.42.822,3.378h0c.308,1.708.449,5.116-.971,7.05a3.4,3.4,0,0,1-2.4,1.412ZM11.986,3.338a1.4,1.4,0,0,0-.916.336,1.05,1.05,0,0,0-.266.805A20.567,20.567,0,0,1,9.9,8.858c-.317,1.18-.644,2.4-.813,3.338-.294,1.631-.438,4.873.885,6.674A2.923,2.923,0,0,0,12,20.082a2.927,2.927,0,0,0,2.034-1.212c1.322-1.8,1.178-5.043.884-6.674h0c-.169-.938-.5-2.158-.813-3.338A20.567,20.567,0,0,1,13.2,4.479a1.047,1.047,0,0,0-.268-.807,1.424,1.424,0,0,0-.92-.334h-.022Z"/><path class="c" d="M19.821,16.252c-1.018,0-3.42-2.426-3.42-4.1a1.081,1.081,0,0,0-.312-.817,2.021,2.021,0,0,0-1.256-.435l-.01-.489a2.469,2.469,0,0,1,1.609.575,1.567,1.567,0,0,1,.458,1.166c0,1.462,2.23,3.612,2.931,3.612Z"/><path class="c" d="M16.492,22.986a1.075,1.075,0,0,1-.81-.529c-.425-.727-.218-2.177.617-4.308.216-.551-.829-1.239-1.212-1.437l.224-.434c.191.1,1.858.992,1.443,2.049-1.019,2.6-.845,3.55-.65,3.883a.582.582,0,0,0,.457.292Z"/><path class="c" d="M13.9,7.347l0-.489a1.684,1.684,0,0,0,1.221-.48.938.938,0,0,0,.014-.877,3.2,3.2,0,0,1-.164-2.411,1.411,1.411,0,0,1,.841-.738l.16.462a.921.921,0,0,0-.559.485,2.805,2.805,0,0,0,.181,2.033,1.388,1.388,0,0,1-.072,1.325A2.186,2.186,0,0,1,13.9,7.347Z"/><path class="c" d="M13.156,3.388l-.483-.079c.109-.667.1-1.682-.266-1.852l.207-.443C13.454,1.406,13.189,3.187,13.156,3.388Z"/><path class="d" d="M9.868,16.973a13.437,13.437,0,0,1,.686-7.565L11,9.6a13.178,13.178,0,0,0-.658,7.262Z"/></svg>