<svg xmlns="http://www.w3.org/2000/svg" viewBox="0 0 24 24"><defs><style>.a{fill:#faaf40;}.b{fill:#f6921e;}.c{fill:#be7e2a;}.d{fill:#9f6427;}.e{fill:#754c28;}</style></defs><path class="a" d="M11.985,2.271c-3.107,0-2.133,3.152-2.133,3.152h0a3.879,3.879,0,0,1,2.132-.876,3.877,3.877,0,0,1,2.131.876h0S15.091,2.271,11.985,2.271Z"/><path class="b" d="M14.116,5.423h0s.767-2.489-1.245-3.043l.008.1s.793.972,0,1.365c-.651.322-2.247.8-3.154.191a3.86,3.86,0,0,0,.126,1.385h0a3.879,3.879,0,0,1,2.132-.876A3.877,3.877,0,0,1,14.116,5.423Z"/><path class="a" d="M11.985,4.547s-2.891.184-2.891,2.706a8.058,8.058,0,0,0,1.074,4.389,3.476,3.476,0,0,1,1.817-.575,3.473,3.473,0,0,1,1.816.575,8.058,8.058,0,0,0,1.075-4.389C14.876,4.731,11.985,4.547,11.985,4.547Z"/><path class="c" d="M11.985,7.707a4.584,4.584,0,0,1,2.768,1.22,11.386,11.386,0,0,0,.122-1.646,4.584,4.584,0,0,0-2.89-1.339A4.586,4.586,0,0,0,9.094,7.281a11.411,11.411,0,0,0,.122,1.647A4.586,4.586,0,0,1,11.985,7.707Z"/><path class="b" d="M14.116,5.423h0s-.027,3.96-1.935,4.21-2.673-.454-3-.978a6.689,6.689,0,0,0,.99,2.987,3.476,3.476,0,0,1,1.817-.575,3.473,3.473,0,0,1,1.816.575,8.058,8.058,0,0,0,1.075-4.389A2.383,2.383,0,0,0,14.116,5.423Z"/><path class="a" d="M11.985,11.067s-3.322-.061-3.322,4,1.415,7.689,3.322,7.689,3.321-3.629,3.321-7.689S11.985,11.067,11.985,11.067Z"/><path class="d" d="M14.019,6.6a7.294,7.294,0,0,1-.377,1.559,4.517,4.517,0,0,1,1.111.764,11.676,11.676,0,0,0,.113-1.21l0-.052c0-.122.007-.244.007-.366V7.281A4.462,4.462,0,0,0,14.019,6.6Z"/><path class="d" d="M9.216,8.928c.032-.03.063-.058.1-.086a2.209,2.209,0,0,1-.129-.181C9.193,8.75,9.2,8.839,9.216,8.928Z"/><path class="b" d="M9.057,18.678c.548,2.375,1.622,4.076,2.928,4.076,1.906,0,3.321-3.629,3.321-7.689a3.8,3.8,0,0,0-1.5-3.423s1.116,5.857-1.124,7.364A3.284,3.284,0,0,1,9.057,18.678Z"/><path class="c" d="M8.8,17.2a14.34,14.34,0,0,0,.373,1.925,9.3,9.3,0,0,0,2.815.406,9.3,9.3,0,0,0,2.814-.406,14.464,14.464,0,0,0,.374-1.925c-.8.8-3.188.814-3.188.814S9.6,18,8.8,17.2Z"/><path class="c" d="M15.058,13.358a6.926,6.926,0,0,1-6.146,0,5.4,5.4,0,0,0-.249,1.707c0,.03,0,.059,0,.089a7.479,7.479,0,0,0,3.321.476,7.457,7.457,0,0,0,3.32-.477c0-.029,0-.058,0-.088A5.431,5.431,0,0,0,15.058,13.358Z"/><path class="d" d="M14.058,15.514a7.487,7.487,0,0,0,1.247-.361c0-.029,0-.058,0-.088a5.431,5.431,0,0,0-.248-1.707,7.022,7.022,0,0,1-1.01.4A15.081,15.081,0,0,1,14.058,15.514Z"/><path class="d" d="M9.058,18.678c.035.153.072.3.112.451a9.3,9.3,0,0,0,2.815.406,9.3,9.3,0,0,0,2.814-.406,14.464,14.464,0,0,0,.374-1.925,3.208,3.208,0,0,1-1.6.657,2.587,2.587,0,0,1-.895,1.145A3.282,3.282,0,0,1,9.058,18.678Z"/><path class="e" d="M4.232,21.622l-.075-.483c1.052-.165,1.289-2.728,1.289-3.613,0-.787,2.4-2.979,3.129-3.632l.325.365c-1.426,1.269-2.965,2.879-2.966,3.267C5.934,17.682,5.916,21.359,4.232,21.622Z"/><path class="e" d="M4.2,12.246H4.156l.014-.489c1.276.037,2.234-1.975,2.3-2.621.094-.89,2.14-1.622,2.549-1.76l.156.464C8.309,8.131,7,8.762,6.958,9.186,6.874,9.982,5.8,12.246,4.2,12.246Z"/><path class="e" d="M9.144,6.786c-.379-.059-2.292-.376-2.7-.875a2.331,2.331,0,0,1-.312-.877c-.226-.952-.454-1.677-1.173-1.657l-.014-.489C6.112,2.852,6.412,4.1,6.607,4.921a2.6,2.6,0,0,0,.215.681,6.554,6.554,0,0,0,2.4.7Z"/><path class="e" d="M11.09,2.482,10.6,2.445l.244.019-.244-.01c0-.009,0-.221-.326-.448A4.652,4.652,0,0,0,7.658,1.49V1c1.585,0,2.644.276,3.148.82A.931.931,0,0,1,11.09,2.482Z"/><path class="e" d="M11.985,23c-1.011,0-1.935-.878-2.6-2.473a14.563,14.563,0,0,1-.964-5.461,4.362,4.362,0,0,1,1.144-3.243,3.627,3.627,0,0,1,2.422-1,3.639,3.639,0,0,1,2.422,1,4.362,4.362,0,0,1,1.144,3.243C15.551,18.965,14.217,23,11.985,23Zm-.007-11.688a3.2,3.2,0,0,0-2.077.864,3.9,3.9,0,0,0-.994,2.89,14.275,14.275,0,0,0,.927,5.273c.586,1.4,1.35,2.172,2.151,2.172,1.668,0,3.077-3.409,3.077-7.445a3.9,3.9,0,0,0-1-2.894,3.179,3.179,0,0,0-2.075-.86h-.011Z"/><path class="e" d="M10.168,11.887a.243.243,0,0,1-.2-.1,8.137,8.137,0,0,1-1.12-4.531c0-2.719,3.089-2.948,3.12-2.95A.16.16,0,0,1,12,4.3c.032,0,3.12.231,3.12,2.95A8.137,8.137,0,0,1,14,11.784a.245.245,0,0,1-.336.061,3.229,3.229,0,0,0-1.675-.534,3.251,3.251,0,0,0-1.684.534A.248.248,0,0,1,10.168,11.887Zm1.817-7.1c-.242.019-2.647.269-2.647,2.461a8.19,8.19,0,0,0,.9,4.056,3.694,3.694,0,0,1,1.748-.486,3.67,3.67,0,0,1,1.739.486,8.19,8.19,0,0,0,.9-4.056C14.631,5.061,12.226,4.811,11.985,4.792Z"/><path class="e" d="M14.117,5.668l-.03,0A.246.246,0,0,1,13.95,5.6a3.62,3.62,0,0,0-1.965-.81,3.645,3.645,0,0,0-1.966.81.245.245,0,0,1-.4-.107,3.281,3.281,0,0,1,.275-2.607,2.438,2.438,0,0,1,2.092-.862h0a2.436,2.436,0,0,1,2.091.862A3.279,3.279,0,0,1,14.351,5.5.245.245,0,0,1,14.117,5.668ZM11.985,2.515a1.982,1.982,0,0,0-1.7.663,2.459,2.459,0,0,0-.282,1.81A4.287,4.287,0,0,1,11.969,4.3.161.161,0,0,1,12,4.3a4.284,4.284,0,0,1,1.964.685,2.473,2.473,0,0,0-.282-1.811,1.986,1.986,0,0,0-1.7-.662Z"/><path class="e" d="M19.768,21.622c-1.713-.268-1.733-4.058-1.733-4.1,0-.388-1.54-2-2.966-3.266l.325-.366c.734.653,3.129,2.845,3.13,3.632,0,1.111.322,3.457,1.32,3.613Z"/><path class="e" d="M19.765,12.245c-1.6,0-2.67-2.263-2.754-3.059-.045-.424-1.351-1.055-2.219-1.347l.156-.463c.409.137,2.455.869,2.549,1.759.068.645,1.025,2.657,2.3,2.621l.014.488Z"/><path class="e" d="M14.825,6.786,14.75,6.3a6.547,6.547,0,0,0,2.4-.7,2.531,2.531,0,0,0,.215-.682c.2-.823.49-2.069,1.663-2.032l-.015.489h-.03c-.694,0-.92.719-1.142,1.657a2.366,2.366,0,0,1-.313.879C17.118,6.41,15.2,6.727,14.825,6.786Z"/><path class="e" d="M12.88,2.482a.919.919,0,0,1,.283-.66c.5-.545,1.563-.82,3.148-.82V1.49c-1.851,0-2.528.4-2.766.64a.5.5,0,0,0-.177.323Z"/></svg>