<svg xmlns="http://www.w3.org/2000/svg" viewBox="0 0 24 24"><defs><style>.a{fill:#2c8880;}.b{fill:#1e695f;}.c{fill:#134f46;}</style></defs><path class="a" d="M14.36,5.567c-.624,0,.662-.78.175-1.561h-.867c0-2.155-.995-2.76-.995-2.76v2.76H11.327V1.246s-.995.605-.995,2.76H9.465c-.487.781.8,1.561.175,1.561s-1.21.858-1.21,2.887A1.816,1.816,0,0,0,10.5,10.3a6.289,6.289,0,0,1,3,0A1.816,1.816,0,0,0,15.57,8.454C15.57,6.425,14.985,5.567,14.36,5.567Z"/><path class="b" d="M15.57,8.454c0-2.029-.585-2.887-1.21-2.887,0,0,.7,2.665-.649,3.215S8.877,10,8.435,8.169c0,.093-.005.187-.005.285A1.816,1.816,0,0,0,10.5,10.3a6.289,6.289,0,0,1,3,0A1.816,1.816,0,0,0,15.57,8.454Z"/><path class="a" d="M11.756,10.118c-.8.038-3.326.307-3.326,2.219,0,2.744-.054,6.993,3.326,7.189Z"/><path class="a" d="M15.57,12.337c0-1.912-2.521-2.181-3.326-2.219v9.408C15.624,19.33,15.57,15.081,15.57,12.337Z"/><path class="b" d="M15.57,12.337a1.738,1.738,0,0,0-.662-1.4,1.858,1.858,0,0,1,.092.587c0,2.579.047,6.489-2.756,7.11v.89C15.624,19.33,15.57,15.081,15.57,12.337Z"/><path class="b" d="M8.43,12.337a1.738,1.738,0,0,1,.662-1.4A1.858,1.858,0,0,0,9,11.526c0,2.579-.046,6.489,2.756,7.11v.89C8.376,19.33,8.43,15.081,8.43,12.337Z"/><path class="c" d="M8.408,9.01A3.376,3.376,0,0,1,6.439,7.819,2.24,2.24,0,0,0,4.858,6.9H4.847a.539.539,0,0,0-.468.209l-.4-.282a1.017,1.017,0,0,1,.862-.416A2.661,2.661,0,0,1,6.832,7.529a2.924,2.924,0,0,0,1.659,1Z"/><path class="c" d="M4.179,15.605v-.489c1.346,0,1.76-.749,2.18-2.429.428-1.712,2.516-1.889,2.6-1.895L9,11.279l-.018-.244L9,11.279c-.018,0-1.825.158-2.167,1.527C6.45,14.337,5.986,15.605,4.179,15.605Z"/><path class="c" d="M5.9,23a2.947,2.947,0,0,1-.345-.02l.056-.486a1.4,1.4,0,0,0,1.232-.326c.741-.757.473-2.686.3-3.962-.062-.448-.115-.835-.123-1.12a1.67,1.67,0,0,1,1.522-1.808l.043.487A1.183,1.183,0,0,0,7.5,17.071c.007.258.059.632.119,1.066.2,1.453.477,3.443-.431,4.371A1.731,1.731,0,0,1,5.9,23Z"/><path class="c" d="M12,19.78a3.327,3.327,0,0,1-3.358-2.65,16.2,16.2,0,0,1-.457-4.662v-.131a1.967,1.967,0,0,1,.6-1.448A5.2,5.2,0,0,1,12,9.868a5.194,5.194,0,0,1,3.216,1.021,1.965,1.965,0,0,1,.6,1.448v.131a16.2,16.2,0,0,1-.457,4.662A3.327,3.327,0,0,1,12,19.78Zm-.007-9.423a4.753,4.753,0,0,0-2.868.88,1.472,1.472,0,0,0-.451,1.1v.131a15.856,15.856,0,0,0,.434,4.515A2.849,2.849,0,0,0,12,19.291a2.849,2.849,0,0,0,2.892-2.308,15.86,15.86,0,0,0,.434-4.515v-.131a1.472,1.472,0,0,0-.451-1.1A4.794,4.794,0,0,0,12,10.357Z"/><path class="c" d="M15.592,9.01l-.082-.482.041.241-.042-.241a2.924,2.924,0,0,0,1.659-1,2.66,2.66,0,0,1,1.991-1.114,1.017,1.017,0,0,1,.862.416l-.4.282a.542.542,0,0,0-.469-.209,2.249,2.249,0,0,0-1.592.915A3.376,3.376,0,0,1,15.592,9.01Z"/><path class="c" d="M19.821,15.605c-1.807,0-2.271-1.268-2.654-2.8-.344-1.374-2.149-1.526-2.167-1.527l.037-.487c.088.006,2.176.183,2.6,1.895.42,1.68.834,2.429,2.18,2.429Z"/><path class="c" d="M18.1,23a1.731,1.731,0,0,1-1.293-.49c-.908-.928-.632-2.918-.431-4.371.06-.434.112-.808.119-1.066a1.183,1.183,0,0,0-1.076-1.308l.043-.487a1.67,1.67,0,0,1,1.522,1.808c-.008.285-.061.672-.123,1.12-.177,1.277-.444,3.2.3,3.962a1.4,1.4,0,0,0,1.232.326l.056.486A2.947,2.947,0,0,1,18.1,23Z"/><path class="c" d="M13.638,10.544c-.091,0-.149-.005-.158-.006a.225.225,0,0,1-.036-.006,6.045,6.045,0,0,0-2.888,0,.225.225,0,0,1-.036.006A2.479,2.479,0,0,1,8.786,10a2,2,0,0,1-.6-1.546c0-2.541.852-3.033,1.294-3.116l-.02-.03a1.287,1.287,0,0,1-.2-1.431.245.245,0,0,1,.208-.115h.627c.073-2.072,1.064-2.7,1.108-2.725a.244.244,0,0,1,.371.209V3.762h.858V1.246a.244.244,0,0,1,.371-.209c.044.027,1.035.653,1.108,2.725h.627a.242.242,0,0,1,.207.115,1.285,1.285,0,0,1-.2,1.431l-.02.03c.442.083,1.294.574,1.294,3.116a2,2,0,0,1-.6,1.546A2.393,2.393,0,0,1,13.638,10.544Zm-.1-.491a1.99,1.99,0,0,0,1.347-.415,1.533,1.533,0,0,0,.44-1.184c0-1.825-.485-2.643-.966-2.643a.393.393,0,0,1-.38-.18c-.105-.191.013-.375.149-.587.19-.3.331-.549.253-.793h-.714a.245.245,0,0,1-.244-.245,3.9,3.9,0,0,0-.507-2.128V4.006a.245.245,0,0,1-.244.245H11.327a.245.245,0,0,1-.244-.245V1.877a3.9,3.9,0,0,0-.507,2.129.245.245,0,0,1-.244.245H9.618c-.078.244.063.5.253.793.136.212.254.4.149.587a.393.393,0,0,1-.38.18c-.481,0-.966.818-.966,2.643a1.533,1.533,0,0,0,.44,1.184,2,2,0,0,0,1.347.415A7.009,7.009,0,0,1,12,9.868,7.073,7.073,0,0,1,13.539,10.053Z"/><rect class="c" x="11.756" y="10.113" width="0.489" height="9.423"/></svg>