<svg xmlns="http://www.w3.org/2000/svg" viewBox="0 0 24 24"><defs><style>.a{fill:#29306f;}.b{fill:#1d2350;}.c{fill:#127d48;}.d{fill:#0e132d;}</style></defs><path class="a" d="M12,6.145c0-.625-.946-.567-1.143-.843s.038-.756.5-.8.364-.756-.015-.7-.6-.437-.57-1.12a2.847,2.847,0,0,1,.73-1.439c-2.021,0-1.356,5.117-1.356,5.118A4.231,4.231,0,0,1,12,6.145Z"/><path class="a" d="M12,6.145S9.411,5.854,9.411,7.424V9.9h5.178V7.424C14.589,5.854,12,6.145,12,6.145Z"/><path class="a" d="M12,6.145S9.411,5.854,9.411,7.424V9.9h5.178V7.424C14.589,5.854,12,6.145,12,6.145Z"/><path class="b" d="M12,9.9h2.589V7.424a1.11,1.11,0,0,0-.738-1.06s.491,2.479-1.342,2.52a14.7,14.7,0,0,1-3.1-.126V9.9Z"/><path class="a" d="M12,6.145c0-.625.945-.567,1.143-.843s-.037-.756-.5-.8-.364-.756.015-.7.6-.437.57-1.12a2.847,2.847,0,0,0-.73-1.439c2.021,0,1.356,5.117,1.356,5.118A4.231,4.231,0,0,0,12,6.145Z"/><polygon class="c" points="11.999 22.192 12 22.192 12.001 22.192 11.999 22.192"/><path class="a" d="M11.756,9.9H9.411s-.786-.2-.786,1.512c0,1.678-.5,10.4,3.131,10.771Z"/><path class="a" d="M15.375,11.407c0-1.716-.786-1.512-.786-1.512H12.244V22.178C15.875,21.8,15.375,13.085,15.375,11.407Z"/><path class="b" d="M15.375,11.407c0-1.716-.786-1.512-.786-1.512h-.182a4.18,4.18,0,0,1,.037.581c0,1.518.409,8.8-2.2,10.449v1.253C15.875,21.8,15.375,13.085,15.375,11.407Z"/><path class="b" d="M8.625,11.407c0-1.716.786-1.512.786-1.512h.183a4.017,4.017,0,0,0-.038.581c0,1.518-.409,8.8,2.2,10.449v1.253C8.125,21.8,8.625,13.085,8.625,11.407Z"/><path class="d" d="M10.149,6.608a.249.249,0,0,1-.116-.029A.244.244,0,0,1,9.908,6.4c-.006-.035-.48-3.652.6-4.931A1.256,1.256,0,0,1,11.505,1h0a.244.244,0,0,1,.179.411,2.537,2.537,0,0,0-.665,1.281,1.188,1.188,0,0,0,.192.84.107.107,0,0,0,.1.029.494.494,0,0,1,.477.193.661.661,0,0,1,.078.651.561.561,0,0,1-.48.338.394.394,0,0,0-.326.22.2.2,0,0,0,0,.2,1.211,1.211,0,0,0,.314.129c.348.113.874.283.874.856a.243.243,0,0,1-.271.242,4.016,4.016,0,0,0-1.724.2A.249.249,0,0,1,10.149,6.608Zm.437-4.274a9.928,9.928,0,0,0-.229,3.7,4.2,4.2,0,0,1,1.192-.15,2.526,2.526,0,0,0-.329-.125,1.053,1.053,0,0,1-.562-.31.678.678,0,0,1-.045-.682.881.881,0,0,1,.724-.5.081.081,0,0,0,.086-.073.158.158,0,0,0-.034-.14.6.6,0,0,1-.5-.147,1.573,1.573,0,0,1-.355-1.223A1.5,1.5,0,0,1,10.586,2.334Z"/><path class="d" d="M8.738,10.555C8.624,10.526,7.62,10.2,7.5,7.571A11,11,0,0,0,5.985,2.9L6.4,2.642A11.29,11.29,0,0,1,7.987,7.548c.1,2.238.864,2.531.871,2.533Z"/><path class="d" d="M1.871,14.417a1.531,1.531,0,0,1-.742-.189l.234-.429c.743.4,1.647-.239,2.374-.756a3.665,3.665,0,0,1,.994-.583c.824-.227,3.461,1.072,3.981,1.335l-.22.436c-1.224-.618-3.16-1.429-3.632-1.3a3.62,3.62,0,0,0-.84.51A4.1,4.1,0,0,1,1.871,14.417Z"/><path class="d" d="M6.2,23l-.021-.488c1.349-.056,1.412-2.036,1.365-3.887,0-.144-.007-.278-.009-.4a1.456,1.456,0,0,1,.44-1.217,1.1,1.1,0,0,1,.877-.2l-.109.477a.6.6,0,0,0-.465.1,1.035,1.035,0,0,0-.254.827c0,.12.005.253.009.395C8.075,20.221,8.144,22.917,6.2,23Z"/><path class="d" d="M14.589,10.139H9.411A.244.244,0,0,1,9.166,9.9V7.424a1.283,1.283,0,0,1,.434-1A3.6,3.6,0,0,1,12,5.9a3.6,3.6,0,0,1,2.4.525,1.283,1.283,0,0,1,.434,1V9.9A.244.244,0,0,1,14.589,10.139ZM9.655,9.65h4.69V7.424a.807.807,0,0,0-.271-.636,3.152,3.152,0,0,0-2.047-.4.244.244,0,0,1-.054,0,3.278,3.278,0,0,0-2.048.4.809.809,0,0,0-.27.636Z"/><path class="d" d="M12,22.437a2.438,2.438,0,0,1-1.794-.77c-1.977-2.014-1.872-7.593-1.833-9.693,0-.234.008-.426.008-.567a1.98,1.98,0,0,1,.5-1.606.721.721,0,0,1,.548-.151h5.134a.72.72,0,0,1,.548.151,1.98,1.98,0,0,1,.5,1.606h0c0,.141,0,.333.008.566.039,2.1.144,7.68-1.833,9.694A2.438,2.438,0,0,1,12,22.437ZM9.335,10.131a.256.256,0,0,0-.161.065c-.114.1-.3.378-.3,1.211,0,.143,0,.339-.008.576-.039,2.044-.14,7.474,1.692,9.342a1.989,1.989,0,0,0,2.892,0c1.832-1.867,1.731-7.3,1.692-9.341,0-.237-.008-.433-.008-.576h0c0-.849-.2-1.128-.314-1.219a.242.242,0,0,0-.166-.057.209.209,0,0,1-.061.008H9.411a.209.209,0,0,1-.061-.008H9.335Z"/><path class="d" d="M13.851,6.608a.245.245,0,0,1-.1-.021,4,4,0,0,0-1.725-.2.243.243,0,0,1-.271-.242c0-.573.526-.743.874-.856a1.16,1.16,0,0,0,.315-.131.2.2,0,0,0,0-.193.394.394,0,0,0-.326-.22.562.562,0,0,1-.48-.338.661.661,0,0,1,.078-.651.491.491,0,0,1,.477-.192.108.108,0,0,0,.1-.03,1.188,1.188,0,0,0,.192-.84,2.545,2.545,0,0,0-.665-1.281A.244.244,0,0,1,12.5,1a1.253,1.253,0,0,1,.973.447c1.059,1.2.673,4.563.626,4.943a.252.252,0,0,1-.076.151A.244.244,0,0,1,13.851,6.608Zm-1.389-.729a4.3,4.3,0,0,1,1.181.15,9.815,9.815,0,0,0-.229-3.693,1.471,1.471,0,0,1,.055.34A1.574,1.574,0,0,1,13.114,3.9a.592.592,0,0,1-.5.148.139.139,0,0,0-.04.139.082.082,0,0,0,.086.073.881.881,0,0,1,.724.5.676.676,0,0,1-.045.681,1.048,1.048,0,0,1-.562.311,2.526,2.526,0,0,0-.329.125Z"/><path class="d" d="M15.262,10.555l-.12-.474.06.237-.069-.235c.008,0,.776-.286.88-2.535A11.29,11.29,0,0,1,17.6,2.642l.413.261A11,11,0,0,0,16.5,7.571C16.38,10.2,15.376,10.526,15.262,10.555Z"/><path class="d" d="M22.129,14.417a4.1,4.1,0,0,1-2.149-.976,3.62,3.62,0,0,0-.84-.51c-.472-.129-2.408.682-3.631,1.3l-.221-.436c.52-.263,3.158-1.562,3.982-1.335a3.711,3.711,0,0,1,.993.582c.727.518,1.631,1.162,2.374.757l.234.429A1.531,1.531,0,0,1,22.129,14.417Z"/><path class="d" d="M17.8,23c-1.942-.081-1.874-2.777-1.833-4.388,0-.142.007-.274.009-.394a1.035,1.035,0,0,0-.257-.83.616.616,0,0,0-.46-.1l-.111-.476a1.1,1.1,0,0,1,.877.2,1.456,1.456,0,0,1,.44,1.217c0,.123-.005.257-.009.4-.047,1.852.016,3.832,1.365,3.888Z"/><rect class="d" x="11.756" y="9.895" width="0.489" height="12.297"/></svg>