<svg xmlns="http://www.w3.org/2000/svg" viewBox="0 0 24 24"><defs><style>.a{fill:#c58d5c;}.b{fill:#ae7343;}.c{fill:#754c28;}.d{fill:#e9b284;}</style></defs><path class="a" d="M15.156,7.722c0-2.745-2.545-2.534-2.545-3.042S12,4.257,12,4.257s-.612-.085-.612.423-2.544.3-2.544,3.042h0A7.32,7.32,0,0,1,12,6.9a7.323,7.323,0,0,1,3.156.822Z"/><path class="b" d="M12.893,4.935c.33.293,1.315,1.258.149,1.413-1.194.159-3.046-.066-4.177.98a3.766,3.766,0,0,0-.021.394h0A7.32,7.32,0,0,1,12,6.9a7.323,7.323,0,0,1,3.156.822h0C15.156,5.544,13.554,5.227,12.893,4.935Z"/><path class="a" d="M16.892,10.664C16.893,6.939,12,6.9,12,6.9h0s-4.893.038-4.893,3.763S6.656,18,9.027,20.111,10.871,22.632,12,22.632h0c1.129,0,.6-.414,2.973-2.521S16.893,14.39,16.892,10.664Z"/><path class="b" d="M14.973,20.111c2.371-2.108,1.92-5.721,1.919-9.447a3.721,3.721,0,0,0-.077-.77c-.118,1.032-.87,6.267-4.143,7.422a5.456,5.456,0,0,1-5.5-1.373,6.144,6.144,0,0,0,1.854,4.168C11.4,22.218,10.871,22.632,12,22.632S12.6,22.218,14.973,20.111Z"/><path class="c" d="M10.747,5.258a4.756,4.756,0,0,1-2.6-4.134h.489a4.266,4.266,0,0,0,2.317,3.693Z"/><path class="c" d="M8.438,8.121,5.572,6.589a.244.244,0,0,1-.106-.321c.412-.857.9-2.231.71-2.6l.433-.226c.329.631-.314,2.192-.6,2.829L8.668,7.69Z"/><path class="c" d="M2.191,10.1A2.633,2.633,0,0,1,1.15,9.873l.192-.45c1.39.593,2.259-.362,2.834-.995.273-.3.436-.48.655-.463A14.72,14.72,0,0,1,7.418,9.3l-.251.419A19.06,19.06,0,0,0,4.828,8.46a3.5,3.5,0,0,0-.29.3A3.293,3.293,0,0,1,2.191,10.1ZM4.852,8.444"/><path class="c" d="M4.743,20.7l-.313-.376c1.069-.891.479-3.42.127-4.931-.217-.93-.3-1.316-.19-1.539.273-.545,2.076-1.35,2.622-1.583l.192.449a8.332,8.332,0,0,0-2.372,1.345,6.283,6.283,0,0,0,.224,1.217C5.435,17.011,6.043,19.619,4.743,20.7Zm.067-6.641"/><path class="c" d="M12,22.876h0a1.38,1.38,0,0,1-1.342-.722,14.315,14.315,0,0,0-1.793-1.861c-2.124-1.888-2.073-4.9-2.019-8.084.009-.5.018-1.027.018-1.545a3.626,3.626,0,0,1,2.6-3.506A8.077,8.077,0,0,1,12,6.656a8.082,8.082,0,0,1,2.536.5,3.627,3.627,0,0,1,2.6,3.506h0c0,.518.009,1.04.017,1.545.055,3.186.106,6.2-2.019,8.084a14.218,14.218,0,0,0-1.792,1.861A1.381,1.381,0,0,1,12,22.876Zm0-.488h0c.522,0,.573-.062.962-.542a14.746,14.746,0,0,1,1.848-1.918c1.956-1.739,1.907-4.64,1.855-7.711-.009-.507-.018-1.031-.018-1.553h0c0-3.439-4.46-3.517-4.65-3.519s-4.646.081-4.646,3.519c0,.522-.009,1.046-.018,1.553-.052,3.071-.1,5.972,1.855,7.711a14.746,14.746,0,0,1,1.848,1.918c.389.48.439.542.962.542Z"/><path class="c" d="M15.156,7.967a.238.238,0,0,1-.122-.033A7.1,7.1,0,0,0,12,7.145a7.123,7.123,0,0,0-3.034.789A.244.244,0,0,1,8.7,7.918a.248.248,0,0,1-.1-.186v-.01a2.829,2.829,0,0,1,2.149-2.907,2.413,2.413,0,0,0,.4-.174.615.615,0,0,1,.245-.485A.92.92,0,0,1,12,4.011a.9.9,0,0,1,.652.176.622.622,0,0,1,.207.454,2.413,2.413,0,0,0,.4.174A2.829,2.829,0,0,1,15.4,7.722a.248.248,0,0,1-.006.054v.006a.245.245,0,0,1-.142.165A.225.225,0,0,1,15.156,7.967ZM12,6.66a7.74,7.74,0,0,1,2.889.649,2.34,2.34,0,0,0-1.812-2.037c-.381-.145-.71-.271-.71-.592,0-.089-.03-.115-.041-.125a.457.457,0,0,0-.294-.056.236.236,0,0,1-.065,0h0a.455.455,0,0,0-.293.056c-.011.01-.041.036-.041.125,0,.321-.329.447-.71.592A2.34,2.34,0,0,0,9.111,7.309,7.767,7.767,0,0,1,12,6.656Zm.856-1.98Z"/><path class="c" d="M13.253,5.258l-.211-.441a4.265,4.265,0,0,0,2.317-3.693h.489A4.756,4.756,0,0,1,13.253,5.258Z"/><path class="c" d="M15.562,8.121l-.23-.431,2.662-1.423c-.29-.637-.932-2.2-.6-2.829l.433.226c-.2.373.3,1.747.709,2.6a.243.243,0,0,1-.105.321Z"/><path class="c" d="M21.809,10.1a3.291,3.291,0,0,1-2.347-1.344,3.359,3.359,0,0,0-.29-.3,19.07,19.07,0,0,0-2.339,1.255L16.582,9.3a14.72,14.72,0,0,1,2.587-1.331c.219-.017.382.164.655.463.575.633,1.443,1.589,2.834.995l.192.45A2.633,2.633,0,0,1,21.809,10.1ZM19.148,8.444Z"/><path class="c" d="M19.257,20.7c-1.3-1.084-.692-3.692-.29-5.418a6.283,6.283,0,0,0,.224-1.217,8.308,8.308,0,0,0-2.372-1.345l.192-.449c.546.233,2.349,1.037,2.621,1.583.112.223.028.609-.189,1.539-.352,1.511-.942,4.04.127,4.931Z"/><path class="d" d="M7.908,15.712a40.134,40.134,0,0,1,0-4.585A3.285,3.285,0,0,1,9.677,8.184l.185.453L9.77,8.411l.093.225A2.816,2.816,0,0,0,8.4,11.163a38.987,38.987,0,0,0,0,4.518Z"/></svg>