<svg xmlns="http://www.w3.org/2000/svg" viewBox="0 0 24 24"><defs><style>.a{fill:#4054a4;}.b{fill:#30489d;}.c{fill:#25336c;}.d{fill:#6d81bf;}</style></defs><path class="a" d="M11.975,6.648h0s-1.531.522-1.531,1.108V9.845a3.046,3.046,0,0,1,1.531-.982,3.046,3.046,0,0,1,1.531.982V7.755C13.506,7.17,11.976,6.648,11.975,6.648Z"/><path class="b" d="M13.14,7.231s.179,1.032-.661,1.015a3.281,3.281,0,0,0-2.035.833v.766a3.046,3.046,0,0,1,1.531-.982,3.046,3.046,0,0,1,1.531.982V7.755A.749.749,0,0,0,13.14,7.231Z"/><path class="a" d="M14.245,12.106a3.114,3.114,0,0,0-2.27-3.243h0a3.114,3.114,0,0,0-2.27,3.243c0,2.756.163,6.755,2.27,6.755h0C14.083,18.861,14.245,14.862,14.245,12.106Z"/><path class="b" d="M13.722,10.138a4.2,4.2,0,0,1-.019.719c-.3,2.74-.912,6.7-3.158,6.448a1.752,1.752,0,0,1-.29-.059c.334.961.868,1.615,1.72,1.615,2.108,0,2.27-4,2.27-6.755A3.56,3.56,0,0,0,13.722,10.138Z"/><path class="a" d="M11.975,5.315h0s-1.042.216-.908,1.747h0a5.68,5.68,0,0,1,.908-.414,5.68,5.68,0,0,1,.908.414h0C13.017,5.531,11.976,5.315,11.975,5.315Z"/><path class="c" d="M11.34,5.742C11.3,5.7,7.207,1.524,4.319,1.524V1.035c3.094,0,7.2,4.188,7.371,4.366Z"/><path class="c" d="M9.869,8.249a2.753,2.753,0,0,1-1.206-.2c-.1-.058-.3-.192-.573-.376C7.262,7.117,5.322,5.816,4.8,5.816V5.327c.617,0,2.1.958,3.56,1.939.258.173.462.309.548.359a3.725,3.725,0,0,0,1.513.112l.042.487C10.409,8.229,10.167,8.249,9.869,8.249Z"/><path class="c" d="M4.228,13.4l-.149-.465c.03-.009,2.929-.953,3.356-2.464.419-1.483,2.183-1.539,3.058-1.362l-.1.479.049-.239-.048.239c-.086-.017-2.09-.4-2.491,1.016C7.407,12.369,4.358,13.36,4.228,13.4Z"/><path class="c" d="M6.506,22.965l-.338-.354c.023-.022,2.34-2.267,2.374-4.654a3.019,3.019,0,0,1,.717-2.333.866.866,0,0,1,.686-.2l-.1.479.05-.239-.043.24a.41.41,0,0,0-.3.116c-.186.159-.5.623-.519,1.947C8.994,20.558,6.607,22.868,6.506,22.965Z"/><path class="c" d="M11.975,19.105c-2.514,0-2.514-4.905-2.514-7a3.345,3.345,0,0,1,2.461-3.481.237.237,0,0,1,.106,0,3.344,3.344,0,0,1,2.461,3.481h0C14.489,14.2,14.489,19.105,11.975,19.105Zm0-9.99A2.87,2.87,0,0,0,9.95,12.106c0,2.8.21,6.511,2.025,6.511S14,14.9,14,12.106h0A2.87,2.87,0,0,0,11.975,9.115Z"/><path class="c" d="M13.506,10.089A.248.248,0,0,1,13.318,10a2.814,2.814,0,0,0-1.343-.886A2.814,2.814,0,0,0,10.632,10a.244.244,0,0,1-.432-.157V7.756c0-.808,1.7-1.342,1.719-1.346a.244.244,0,0,1,.114,0c.017,0,1.718.553,1.719,1.345v2.09a.245.245,0,0,1-.162.23A.237.237,0,0,1,13.506,10.089ZM11.975,6.907c-.624.225-1.287.615-1.287.849v1.5a3.194,3.194,0,0,1,1.232-.635.255.255,0,0,1,.11,0,3.191,3.191,0,0,1,1.232.635v-1.5C13.262,7.522,12.6,7.132,11.975,6.907Z"/><path class="c" d="M11.067,7.306a.244.244,0,0,1-.244-.223c-.135-1.552.872-1.987,1.129-2.012a.268.268,0,0,1,.075,0c.051.011,1.25.293,1.1,2.007a.245.245,0,0,1-.367.19,5.279,5.279,0,0,0-.785-.365,5.215,5.215,0,0,0-.784.364.229.229,0,0,1-.071.028A.233.233,0,0,1,11.067,7.306Zm.908-.9a.175.175,0,0,1,.04,0,4.612,4.612,0,0,1,.631.254,1.117,1.117,0,0,0-.671-1.091A1.117,1.117,0,0,0,11.3,6.661a6.027,6.027,0,0,1,.591-.244A.245.245,0,0,1,11.975,6.4Z"/><path class="c" d="M12.61,5.742,12.26,5.4c.173-.178,4.277-4.366,7.371-4.366v.489C16.743,1.524,12.651,5.7,12.61,5.742Z"/><path class="c" d="M14.081,8.249c-.3,0-.54-.02-.6-.025l.043-.487a3.73,3.73,0,0,0,1.513-.112c.083-.048.277-.177.523-.34C17,6.338,18.577,5.327,19.2,5.327h0v.489c-.527,0-2.589,1.364-3.365,1.877-.262.174-.452.3-.547.355A2.747,2.747,0,0,1,14.081,8.249Z"/><path class="c" d="M19.774,13.4c-.132-.041-3.23-1.033-3.729-2.8-.4-1.418-2.405-1.033-2.49-1.016l-.1-.479c.874-.177,2.638-.121,3.057,1.362.427,1.511,3.376,2.454,3.406,2.464Z"/><path class="c" d="M17.444,22.965c-.1-.1-2.488-2.407-2.525-5-.019-1.324-.333-1.788-.519-1.947a.414.414,0,0,0-.3-.116l-.092-.48a.866.866,0,0,1,.686.2,3.019,3.019,0,0,1,.717,2.333c.034,2.388,2.351,4.632,2.374,4.654Z"/><path class="d" d="M10.435,16.055a26.975,26.975,0,0,1-.187-3.595c.013-2.4,1.287-2.442,1.342-2.443l.007.489,0-.244.009.244c-.035,0-.855.072-.865,1.957a26.983,26.983,0,0,0,.182,3.523Z"/></svg>