<svg xmlns="http://www.w3.org/2000/svg" viewBox="0 0 24 24"><defs><style>.a{fill:#f1663f;}.b{fill:#e04b28;}.c{fill:#9d2d21;}</style></defs><path class="a" d="M9.164,10.27q-.06.752-.061,1.58c0,3.058.523,8.612,2.9,10.3V13.54C12,11.09,9.174,10.273,9.164,10.27Z"/><path class="a" d="M14.9,11.85c0-3.058-.644-5.392-1.489-6.318A12.567,12.567,0,0,1,12,3.641h0a12.51,12.51,0,0,1-1.408,1.891C9.747,6.458,9.1,8.792,9.1,11.85s.523,8.612,2.9,10.3h0C14.374,20.461,14.9,14.908,14.9,11.85Z"/><path class="a" d="M14.836,10.27q.06.752.061,1.58c0,3.059-.523,8.611-2.9,10.3V13.54C12,11.09,14.826,10.273,14.836,10.27Z"/><path class="b" d="M14.836,10.27a5.013,5.013,0,0,0-.838.356c0,.109,0,.218,0,.328,0,2.627-.387,7.093-2,9.372v1.825c2.374-1.69,2.9-7.242,2.9-10.3Q14.9,11.022,14.836,10.27Z"/><path class="b" d="M9.164,10.27a5.053,5.053,0,0,1,.838.356c0,.109,0,.218,0,.328,0,2.627.387,7.093,2,9.372v1.825c-2.374-1.69-2.9-7.242-2.9-10.3C9.1,11.3,9.124,10.771,9.164,10.27Z"/><path class="c" d="M12,22.4a.244.244,0,0,1-.142-.045c-2.855-2.033-3-9.1-3-10.5,0-.539.021-1.077.062-1.6a.243.243,0,0,1,.1-.181.246.246,0,0,1,.207-.035c.03.009,3.013.9,3.013,3.5v8.611A.243.243,0,0,1,12,22.4ZM9.385,10.61c-.025.408-.038.824-.038,1.24,0,3.5.64,8,2.408,9.773V13.54C11.756,11.752,10.074,10.888,9.385,10.61Z"/><path class="c" d="M10.979,5.186a2.7,2.7,0,0,1-1.517-2.47h.489a2.214,2.214,0,0,0,1.224,2.023Z"/><path class="c" d="M9.329,8.118A4.935,4.935,0,0,0,6.855,6.579a11.219,11.219,0,0,1-2.779-.825l.206-.443A10.889,10.889,0,0,0,6.924,6.1,5.333,5.333,0,0,1,9.7,7.8Z"/><path class="c" d="M4.2,15.073H4.16l.038-.488a1.587,1.587,0,0,0,.736-.452A3.014,3.014,0,0,0,6,12.523c.044-.981,2.554-2.232,3.056-2.473l.211.441c-1.14.546-2.756,1.545-2.779,2.055A3.442,3.442,0,0,1,5.258,14.5,1.967,1.967,0,0,1,4.2,15.073Z"/><path class="c" d="M6.456,22.874l-.1-.479c1.412-.288,1.217-2.528,1.1-3.867-.026-.3-.049-.568-.049-.762,0-1.192,1.8-2.006,1.876-2.04l.2.446c-.441.2-1.587.867-1.587,1.593,0,.174.022.427.048.721C8.076,19.987,8.3,22.5,6.456,22.874Z"/><path class="c" d="M12,22.4a.247.247,0,0,1-.142-.045c-2.855-2.033-3-9.1-3-10.5,0-2.949.595-5.433,1.553-6.482a12.43,12.43,0,0,0,1.376-1.847.245.245,0,0,1,.428,0,12.317,12.317,0,0,0,1.374,1.843c.958,1.049,1.553,3.533,1.553,6.482,0,1.4-.145,8.468-3,10.5A.247.247,0,0,1,12,22.4ZM12,4.1A12.817,12.817,0,0,1,10.772,5.7c-.865.948-1.425,3.363-1.425,6.153,0,3.656.7,8.407,2.653,9.994,1.954-1.587,2.653-6.338,2.653-9.994,0-2.789-.56-5.2-1.425-6.153A12.817,12.817,0,0,1,12,4.1Z"/><path class="c" d="M12,22.4a.245.245,0,0,1-.245-.245V13.54c0-2.617,2.986-3.5,3.016-3.5a.245.245,0,0,1,.308.216c.041.519.062,1.057.062,1.6,0,1.4-.145,8.468-3,10.5A.247.247,0,0,1,12,22.4ZM14.615,10.61c-.688.277-2.371,1.138-2.371,2.93v8.083c1.769-1.771,2.409-6.274,2.409-9.773C14.653,11.431,14.64,11.015,14.615,10.61Z"/><path class="c" d="M13.021,5.186l-.2-.448.1.224-.1-.223a2.214,2.214,0,0,0,1.224-2.023h.489A2.7,2.7,0,0,1,13.021,5.186Z"/><path class="c" d="M14.671,8.118,14.3,7.8a5.333,5.333,0,0,1,2.776-1.7,10.837,10.837,0,0,0,2.642-.784l.206.443a11.219,11.219,0,0,1-2.779.825A4.914,4.914,0,0,0,14.671,8.118Z"/><path class="c" d="M19.8,15.073a1.967,1.967,0,0,1-1.058-.575,3.437,3.437,0,0,1-1.232-1.952c-.023-.5-1.672-1.525-2.78-2.055l.212-.441c.5.241,3.012,1.491,3.056,2.473a3.014,3.014,0,0,0,1.068,1.609,1.572,1.572,0,0,0,.736.452l.038.488Z"/><path class="c" d="M17.544,22.874c-1.839-.375-1.62-2.888-1.49-4.389.025-.293.048-.546.048-.719,0-.726-1.146-1.4-1.587-1.594l.2-.447c.076.035,1.876.849,1.876,2.041,0,.194-.023.457-.049.762-.116,1.338-.311,3.579,1.1,3.867Z"/><rect class="c" x="11.756" y="1.126" width="0.489" height="2.515"/></svg>