<svg xmlns="http://www.w3.org/2000/svg" viewBox="0 0 24 24"><defs><style>.a{fill:#ef5165;}.b{fill:#c5334d;}.c{fill:#821930;}</style></defs><path class="a" d="M12,8.236A5.3,5.3,0,0,1,8.511,6.971c.006-.038.651-4.137,3.489-4.137s3.484,4.1,3.49,4.137A5.308,5.308,0,0,1,12,8.236Z"/><path class="b" d="M15.49,6.971a7.2,7.2,0,0,0-1.267-3A2.554,2.554,0,0,1,12,6.694a4.552,4.552,0,0,1-3.314-.481,6.826,6.826,0,0,0-.175.758,5.445,5.445,0,0,0,6.979,0Z"/><path class="a" d="M14.239,15.684a1.006,1.006,0,1,0,1.006,1.006A1.007,1.007,0,0,0,14.239,15.684Z"/><path class="a" d="M10.047,9.741a.595.595,0,1,0,.595.6A.6.6,0,0,0,10.047,9.741Z"/><path class="a" d="M9.813,13.444a.595.595,0,1,0,.594.595A.6.6,0,0,0,9.813,13.444Z"/><path class="a" d="M8.511,16.757a1.006,1.006,0,1,0,1.006,1.006A1.007,1.007,0,0,0,8.511,16.757Z"/><path class="a" d="M6.948,11.474A1.006,1.006,0,1,0,7.954,12.48,1.007,1.007,0,0,0,6.948,11.474Z"/><path class="a" d="M14.551,11.782a1.006,1.006,0,1,0,1.006,1.006A1.007,1.007,0,0,0,14.551,11.782Z"/><path class="a" d="M15.126,9.293a.594.594,0,1,0,.594.594A.595.595,0,0,0,15.126,9.293Z"/><path class="a" d="M17.888,13.136a.595.595,0,1,0,.595.594A.6.6,0,0,0,17.888,13.136Z"/><path class="c" d="M10.934,3.146c-.2-.221-1.184-1.362-1.128-2.033l.487.041A3.906,3.906,0,0,0,11.3,2.821Z"/><path class="c" d="M7.286,5.956C7.068,5.573,6.34,4.579,5.6,4.579c-.811,0-.949.5-.962.557l-.478-.1A1.348,1.348,0,0,1,5.6,4.09c1.179,0,2.075,1.559,2.113,1.625Z"/><path class="c" d="M1.455,11.964l-.418-.253a2.433,2.433,0,0,1,1.737-1.319,2.715,2.715,0,0,1,2.012.766l-.344.348.172-.174-.172.174a2.257,2.257,0,0,0-1.611-.629A1.982,1.982,0,0,0,1.455,11.964Z"/><path class="c" d="M4.853,20.639a1.9,1.9,0,0,1-.486-1.768,1.974,1.974,0,0,1,1.3-1.069l.123.473-.062-.236.062.236c-.007,0-.773.21-.961.757a1.471,1.471,0,0,0,.414,1.311Z"/><path class="c" d="M12,22.887a.233.233,0,0,1-.082-.015,16.177,16.177,0,0,1-3.866-2.135c-2.551-1.913-3.9-4.264-3.9-6.8,0-6.063,3.077-8.217,3.208-8.306a.244.244,0,0,1,.348.079A5.065,5.065,0,0,0,12,7.992a5.137,5.137,0,0,0,4.291-2.28.244.244,0,0,1,.348-.079c.131.089,3.208,2.243,3.208,8.306,0,2.534-1.348,4.885-3.9,6.8a16.156,16.156,0,0,1-3.866,2.135A.233.233,0,0,1,12,22.887ZM7.443,6.193c-.661.579-2.8,2.831-2.8,7.746,0,5.428,6.546,8.128,7.358,8.442.813-.314,7.359-3.014,7.359-8.442,0-4.932-2.139-7.172-2.8-7.747a5.681,5.681,0,0,1-9.114,0Z"/><path class="c" d="M12,8.481A5.577,5.577,0,0,1,8.353,7.157a.245.245,0,0,1-.084-.224C8.3,6.756,8.981,2.59,12,2.59s3.7,4.165,3.731,4.342a.243.243,0,0,1-.084.225A5.577,5.577,0,0,1,12,8.481ZM8.777,6.874A5.026,5.026,0,0,0,12,7.992a5.024,5.024,0,0,0,3.224-1.119c-.137-.7-.875-3.794-3.224-3.794C9.672,3.079,8.916,6.183,8.777,6.874Z"/><path class="c" d="M13.066,3.146,12.7,2.821a3.918,3.918,0,0,0,1.005-1.667l.487-.041C14.25,1.784,13.264,2.925,13.066,3.146Z"/><path class="c" d="M16.714,5.956l-.425-.241c.038-.066.934-1.625,2.113-1.625a1.35,1.35,0,0,1,1.441.947l-.48.1c-.012-.054-.15-.554-.961-.554C17.66,4.579,16.932,5.573,16.714,5.956Z"/><path class="c" d="M22.545,11.964a1.979,1.979,0,0,0-1.379-1.087,2.244,2.244,0,0,0-1.608.629l-.344-.348a2.726,2.726,0,0,1,2.013-.766,2.435,2.435,0,0,1,1.736,1.319Z"/><path class="c" d="M19.147,20.639l-.389-.3a1.471,1.471,0,0,0,.414-1.311c-.188-.547-.954-.755-.961-.757l.123-.473a1.977,1.977,0,0,1,1.3,1.069A1.9,1.9,0,0,1,19.147,20.639Z"/><rect class="c" x="11.756" y="8.236" width="0.489" height="14.406"/><path class="a" d="M16.557,6.192a5.572,5.572,0,0,1-3.93,2.256l-.016,0c-.084.008-.17.015-.257.02l-.06,0-.049,0V22.282c1.434-.6,7.114-3.287,7.114-8.343C19.359,9.007,17.22,6.767,16.557,6.192ZM14.239,18.185a1.5,1.5,0,1,1,1.495-1.495A1.5,1.5,0,0,1,14.239,18.185Zm.312-3.9a1.495,1.495,0,1,1,1.495-1.495A1.5,1.5,0,0,1,14.551,14.283Zm.575-3.313a1.083,1.083,0,1,1,1.083-1.083A1.084,1.084,0,0,1,15.126,10.97Zm2.762,1.677a1.084,1.084,0,1,1-1.082,1.083A1.085,1.085,0,0,1,17.888,12.647Z"/><path class="b" d="M19.359,13.939a13.3,13.3,0,0,0-.651-4.289,10.2,10.2,0,0,1-.806,3,1.083,1.083,0,1,1-.944,1.633,6.643,6.643,0,0,1-1.539,1.495,1.481,1.481,0,0,1,.315.914,1.494,1.494,0,0,1-2.982.14c-.165.027-.334.05-.507.067v5.385C13.679,21.684,19.359,19,19.359,13.939Z"/><path class="a" d="M11.756,22.282V8.476l-.05,0-.06,0c-.087-.005-.172-.012-.257-.02l-.016,0a5.576,5.576,0,0,1-3.93-2.255c-.661.579-2.8,2.831-2.8,7.746C4.642,19,10.321,21.684,11.756,22.282ZM10.047,9.252a1.084,1.084,0,1,1-1.082,1.084A1.085,1.085,0,0,1,10.047,9.252Zm-.234,3.7a1.083,1.083,0,1,1-1.084,1.083A1.084,1.084,0,0,1,9.813,12.956Zm-4.36-.476a1.5,1.5,0,1,1,1.5,1.495A1.5,1.5,0,0,1,5.453,12.48Zm3.058,3.788a1.495,1.495,0,1,1-1.495,1.5A1.5,1.5,0,0,1,8.511,16.268Z"/><path class="b" d="M11.756,22.282v-5.35a17.132,17.132,0,0,1-2,0,1.495,1.495,0,1,1-2.193-.325A6.944,6.944,0,0,1,4.783,15.3C5.667,19.48,10.455,21.74,11.756,22.282Z"/></svg>