<svg xmlns="http://www.w3.org/2000/svg" viewBox="0 0 24 24"><defs><style>.a{fill:#c89a5d;}.b{fill:#a77d47;}.c{fill:#754c28;}.d{fill:#dfb27e;}</style></defs><path class="a" d="M17.606,12.979c0-2.421-3.239-5.912-3.239-5.912a3.541,3.541,0,0,1-2.362.982H12a3.538,3.538,0,0,1-2.361-.982s-3.24,3.491-3.24,5.912.52,7.874,5.6,7.882h.01C17.086,20.853,17.606,15.4,17.606,12.979Z"/><path class="b" d="M14.367,7.067c-.039.043-.08.083-.121.123a6.479,6.479,0,0,1,1.093,3.048c0,2.419-.52,7.875-5.6,7.882h-.01a5.237,5.237,0,0,1-2.576-.613A4.911,4.911,0,0,0,12,20.861h.01c5.081-.008,5.6-5.463,5.6-7.882S14.367,7.067,14.367,7.067Z"/><path class="a" d="M12.65,3.557S14.075,6.068,12,6.072s-.65-2.515-.65-2.515c-2.623,1.351-1.716,3.51-1.716,3.51A3.591,3.591,0,0,0,12,8.049a3.6,3.6,0,0,0,2.367-.982S15.273,4.908,12.65,3.557Z"/><path class="b" d="M13.912,4.53a2.6,2.6,0,0,1,.042,1.855,3.586,3.586,0,0,1-2.366.982,3.8,3.8,0,0,1-2.063-.7,2.121,2.121,0,0,0,.109.4A3.591,3.591,0,0,0,12,8.049a3.6,3.6,0,0,0,2.367-.982A2.59,2.59,0,0,0,13.912,4.53Z"/><path class="c" d="M9.051,7.758c-.532-.405-3.19-2.479-3.19-3.488s2.91-2.854,3.493-3.211l.256.417C8.256,2.3,6.35,3.718,6.35,4.27s1.753,2.152,3,3.1Z"/><path class="c" d="M8.052,8.96a3.283,3.283,0,0,1-1.8-.473,20.112,20.112,0,0,1-2.5-2.831l.39-.294A20.546,20.546,0,0,0,6.534,8.086a3.09,3.09,0,0,0,1.747.377l.044.487C8.311,8.952,8.21,8.96,8.052,8.96Z"/><path class="c" d="M6.21,10.284a4.068,4.068,0,0,1-1.755-.351A28.912,28.912,0,0,1,1.1,7.76l.292-.392A28.954,28.954,0,0,0,4.669,9.493a4.861,4.861,0,0,0,2.779.168l.115.476A6.289,6.289,0,0,1,6.21,10.284Z"/><path class="c" d="M6.812,22.941c-1.974-2.148-3.153-6.89-3.111-8.654.042-1.748,2.808-3.011,2.926-3.064l.2.446c-.026.012-2.6,1.189-2.637,2.629-.036,1.509,1.053,6.214,2.982,8.312Z"/><path class="c" d="M12.005,21.106h-.026a5.064,5.064,0,0,1-4.912-3.179,12.318,12.318,0,0,1-.917-4.947c0-2.489,3.169-5.933,3.3-6.078a.258.258,0,0,1,.181-.079.248.248,0,0,1,.18.081,3.3,3.3,0,0,0,2.153.9.235.235,0,0,1,.053,0h.008a3.324,3.324,0,0,0,2.157-.9.246.246,0,0,1,.179-.081.259.259,0,0,1,.181.079c.135.145,3.3,3.589,3.3,6.078a12.318,12.318,0,0,1-.917,4.947,5.065,5.065,0,0,1-4.912,3.179ZM9.644,7.422c-.656.749-3.006,3.571-3.006,5.557,0,2.849.7,7.631,5.357,7.638h.01c4.661-.007,5.357-4.789,5.357-7.638,0-1.988-2.349-4.808-3.006-5.557A3.866,3.866,0,0,1,12,8.294,3.868,3.868,0,0,1,9.644,7.422Z"/><path class="c" d="M12.025,8.294H12A3.82,3.82,0,0,1,9.452,7.231a.252.252,0,0,1-.044-.07c-.01-.023-.962-2.383,1.83-3.821a.244.244,0,0,1,.324.338c-.195.344-.638,1.346-.353,1.835.12.208.387.314.791.314a.85.85,0,0,0,.792-.314c.283-.489-.172-1.514-.354-1.835a.244.244,0,0,1,.324-.338c2.792,1.438,1.84,3.8,1.83,3.821a.252.252,0,0,1-.044.07A3.819,3.819,0,0,1,12.025,8.294ZM9.845,6.935a3.372,3.372,0,0,0,2.142.87h.026a3.372,3.372,0,0,0,2.142-.87A2.39,2.39,0,0,0,13.2,4.186a1.981,1.981,0,0,1,.017,1.572A1.289,1.289,0,0,1,12,6.316a1.289,1.289,0,0,1-1.214-.558A1.981,1.981,0,0,1,10.8,4.186,2.391,2.391,0,0,0,9.845,6.935Z"/><path class="c" d="M14.948,7.758l-.3-.389c1.245-.947,3-2.535,3-3.1S15.744,2.3,14.391,1.476l.254-.417c.584.357,3.5,2.188,3.5,3.211S15.481,7.353,14.948,7.758Z"/><path class="c" d="M15.948,8.96c-.158,0-.259-.008-.273-.01l.044-.487a3.09,3.09,0,0,0,1.747-.377A20.471,20.471,0,0,0,19.86,5.362l.39.294a20.112,20.112,0,0,1-2.5,2.831A3.283,3.283,0,0,1,15.948,8.96Z"/><path class="c" d="M17.79,10.284a6.278,6.278,0,0,1-1.353-.147l.115-.476a4.881,4.881,0,0,0,2.779-.168,28.77,28.77,0,0,0,3.277-2.126l.292.393a28.912,28.912,0,0,1-3.355,2.173A4.068,4.068,0,0,1,17.79,10.284Z"/><path class="c" d="M17.188,22.941l-.36-.331c1.928-2.1,3.018-6.8,2.983-8.312-.029-1.2-1.914-2.3-2.638-2.629l.2-.446c.118.053,2.885,1.316,2.926,3.064C20.341,16.051,19.161,20.794,17.188,22.941Z"/><path class="d" d="M7.965,16.738A13.5,13.5,0,0,1,7.321,13.6c-.271-2.259,1.8-4.74,1.885-4.844l.374.315c-.02.024-2.019,2.424-1.774,4.47a13.378,13.378,0,0,0,.612,3.013Z"/></svg>