<svg xmlns="http://www.w3.org/2000/svg" viewBox="0 0 24 24"><defs><style>.a{fill:#d7a979;}.b{fill:#c09065;}.c{fill:#754c28;}.d{fill:#ecbf96;}</style></defs><path class="a" d="M13.811,7.392a3.634,3.634,0,0,1-.7-2.144c0-.554-1.109-.924-1.109-.924s-1.109.37-1.109.924a3.634,3.634,0,0,1-.7,2.144c-.665,1.145-2.476,4.176-2.476,7.465S9.154,20.77,12,21.176c2.846-.406,4.287-3.03,4.287-6.319S14.476,8.537,13.811,7.392Z"/><path class="b" d="M13.811,7.392A5.75,5.75,0,0,1,13.2,6.075l-.194.2s1.373,1.937,1.281,5.929-2.81,5.153-4.613,4.206a6.506,6.506,0,0,1-1.964-1.634c0,.026,0,.053,0,.08,0,3.289,1.441,5.913,4.287,6.319,2.846-.406,4.287-3.03,4.287-6.319S14.476,8.537,13.811,7.392Z"/><path class="c" d="M4.574,12.205,4.2,11.891l2.6-3.1a.245.245,0,0,1,.327-.044L8.9,9.975l-.28.4-1.586-1.1Z"/><path class="c" d="M6.528,22.89l-.942-6.929a.243.243,0,0,1,.075-.211l1.885-1.774.335.356L6.087,16.02l.926,6.805Z"/><path class="c" d="M9.852,7.789l-2-2.576A.249.249,0,0,1,7.8,5.075C7.736,3.7,7.358,1.716,6.723,1.589l.1-.479c1.188.237,1.425,3.1,1.467,3.864l1.952,2.515Z"/><path class="c" d="M5.564,7.83A8.441,8.441,0,0,1,4.1,7.707l.077-.232.063-.236c.33.077,2.753.371,3.776-.581A13.323,13.323,0,0,1,10.9,4.722l.212.441a13.051,13.051,0,0,0-2.76,1.853A4.182,4.182,0,0,1,5.564,7.83Z"/><path class="c" d="M12,21.42a.194.194,0,0,1-.034,0c-2.774-.4-4.5-2.91-4.5-6.561a15.533,15.533,0,0,1,2.458-7.5l.051-.087a3.363,3.363,0,0,0,.669-2.021c0-.7,1.063-1.085,1.276-1.156a.246.246,0,0,1,.154,0c.213.071,1.276.461,1.276,1.156a3.363,3.363,0,0,0,.669,2.021l.05.086a15.528,15.528,0,0,1,2.459,7.5c0,3.651-1.723,6.165-4.5,6.561A.206.206,0,0,1,12,21.42ZM12,4.583c-.374.141-.864.425-.864.665A3.863,3.863,0,0,1,10.4,7.514l-.051.088a15.1,15.1,0,0,0-2.391,7.255c0,3.425,1.51,5.692,4.042,6.072,2.532-.38,4.042-2.647,4.042-6.072A15.089,15.089,0,0,0,13.65,7.6L13.6,7.514h0a3.867,3.867,0,0,1-.735-2.266C12.864,5.017,12.385,4.727,12,4.583Z"/><path class="c" d="M19.426,12.205,16.964,9.272l-1.586,1.1-.28-.4,1.77-1.232a.245.245,0,0,1,.327.044l2.605,3.1Z"/><path class="c" d="M17.472,22.89l-.485-.065.926-6.8-1.794-1.688.335-.356,1.885,1.774a.243.243,0,0,1,.075.211Z"/><path class="c" d="M14.148,7.789l-.386-.3,1.952-2.515c.042-.76.279-3.627,1.467-3.864l.1.479c-.635.127-1.013,2.115-1.079,3.486a.241.241,0,0,1-.051.138Z"/><path class="c" d="M18.435,7.83a4.18,4.18,0,0,1-2.786-.814,13.018,13.018,0,0,0-2.761-1.853l.213-.441a13.349,13.349,0,0,1,2.881,1.936c1.023.952,3.446.658,3.776.581l.036.153.1.315A8.446,8.446,0,0,1,18.435,7.83Z"/><path class="d" d="M8.657,14.35c-.064-2.583,2.022-6.342,2.111-6.5l.427.239c-.021.038-2.11,3.8-2.049,6.25Z"/></svg>