<svg xmlns="http://www.w3.org/2000/svg" viewBox="0 0 24 24"><defs><style>.a{fill:#d7a979;}.b{fill:#c09065;}.c{fill:#009345;}.d{fill:#00783d;}.e{fill:#56351d;}</style></defs><path class="a" d="M16.892,10.664C16.893,6.939,12,6.9,12,6.9s-4.893.038-4.893,3.763a38.32,38.32,0,0,0,.156,5.942C8.964,12.524,12,11.878,12,11.878s3.036.646,4.737,4.728A38.326,38.326,0,0,0,16.892,10.664Z"/><path class="b" d="M16.892,10.664a3.22,3.22,0,0,0-1.736-2.942h0s1.808,4.081-1.235,5.125a8.749,8.749,0,0,1,2.816,3.759A38.326,38.326,0,0,0,16.892,10.664Z"/><path class="c" d="M12,11.878s-3.036.646-4.737,4.728a5.732,5.732,0,0,0,1.764,3.5C11.4,22.218,10.871,22.632,12,22.632s.6-.414,2.973-2.521a5.732,5.732,0,0,0,1.764-3.5C15.036,12.524,12,11.878,12,11.878Z"/><path class="d" d="M10.958,19.332a18.422,18.422,0,0,1-3.323-1.3,5.071,5.071,0,0,0,1.392,2.074C11.4,22.218,10.871,22.632,12,22.632s.6-.414,2.973-2.521a5.732,5.732,0,0,0,1.764-3.5S14.194,20.188,10.958,19.332Z"/><path class="a" d="M15.156,7.722c0-2.745-2.545-2.534-2.545-3.042S12,4.257,12,4.257s-.612-.085-.612.423-2.544.3-2.544,3.042h0A7.32,7.32,0,0,1,12,6.9a7.323,7.323,0,0,1,3.156.822Z"/><path class="e" d="M10.747,5.258a4.756,4.756,0,0,1-2.6-4.134h.489a4.266,4.266,0,0,0,2.317,3.693Z"/><path class="e" d="M8.438,8.121,5.572,6.589a.244.244,0,0,1-.106-.321c.412-.857.9-2.231.71-2.6l.433-.226c.329.631-.314,2.192-.6,2.829L8.668,7.69Z"/><path class="e" d="M2.191,10.1A2.633,2.633,0,0,1,1.15,9.873l.192-.45c1.39.593,2.259-.362,2.834-.995.273-.3.436-.48.655-.463A14.72,14.72,0,0,1,7.418,9.3l-.251.419A19.06,19.06,0,0,0,4.828,8.46a3.5,3.5,0,0,0-.29.3A3.293,3.293,0,0,1,2.191,10.1ZM4.852,8.444"/><path class="e" d="M4.743,20.7l-.313-.376c1.069-.891.479-3.42.127-4.931-.217-.93-.3-1.316-.19-1.539.273-.545,2.076-1.35,2.622-1.583l.192.449a8.332,8.332,0,0,0-2.372,1.345,6.283,6.283,0,0,0,.224,1.217C5.435,17.011,6.043,19.619,4.743,20.7Zm.067-6.641"/><path class="e" d="M12,22.876h0a1.38,1.38,0,0,1-1.342-.722,14.249,14.249,0,0,0-1.793-1.861c-2.124-1.888-2.073-4.9-2.019-8.084.009-.5.018-1.027.018-1.545a3.626,3.626,0,0,1,2.6-3.506A8.077,8.077,0,0,1,12,6.656a8.082,8.082,0,0,1,2.536.5,3.627,3.627,0,0,1,2.6,3.506h0c0,.518.009,1.04.017,1.545.055,3.186.106,6.2-2.019,8.084a14.218,14.218,0,0,0-1.792,1.861A1.381,1.381,0,0,1,12,22.876Zm0-.488h0c.522,0,.573-.062.962-.542a14.746,14.746,0,0,1,1.848-1.918c1.956-1.739,1.907-4.64,1.855-7.711-.009-.507-.018-1.031-.018-1.553h0c0-3.439-4.46-3.517-4.65-3.519s-4.646.081-4.646,3.519c0,.522-.009,1.046-.018,1.553-.052,3.071-.1,5.972,1.855,7.711a14.746,14.746,0,0,1,1.848,1.918c.389.48.439.542.962.542Z"/><path class="e" d="M15.156,7.967a.238.238,0,0,1-.122-.033A7.1,7.1,0,0,0,12,7.145a7.123,7.123,0,0,0-3.034.789A.244.244,0,0,1,8.7,7.918a.248.248,0,0,1-.1-.186v-.01a2.829,2.829,0,0,1,2.149-2.907,2.413,2.413,0,0,0,.4-.174.615.615,0,0,1,.245-.485A.92.92,0,0,1,12,4.011a.9.9,0,0,1,.652.176.622.622,0,0,1,.207.454,2.413,2.413,0,0,0,.4.174A2.829,2.829,0,0,1,15.4,7.722a.248.248,0,0,1-.006.054v.006a.245.245,0,0,1-.142.165A.225.225,0,0,1,15.156,7.967ZM12,6.66a7.74,7.74,0,0,1,2.889.649,2.34,2.34,0,0,0-1.812-2.037c-.381-.145-.71-.271-.71-.592,0-.089-.03-.115-.041-.125a.457.457,0,0,0-.294-.056.236.236,0,0,1-.065,0h0a.455.455,0,0,0-.293.056c-.011.01-.041.036-.041.125,0,.321-.329.447-.71.592A2.34,2.34,0,0,0,9.111,7.309,7.767,7.767,0,0,1,12,6.656Zm.856-1.98Z"/><path class="e" d="M13.253,5.258l-.211-.441a4.265,4.265,0,0,0,2.317-3.693h.489A4.756,4.756,0,0,1,13.253,5.258Z"/><path class="e" d="M15.562,8.121l-.23-.431,2.662-1.423c-.29-.637-.932-2.2-.6-2.829l.433.226c-.2.373.3,1.747.709,2.6a.243.243,0,0,1-.105.321Z"/><path class="e" d="M21.809,10.1a3.291,3.291,0,0,1-2.347-1.344,3.359,3.359,0,0,0-.29-.3,19.07,19.07,0,0,0-2.339,1.255L16.582,9.3a14.72,14.72,0,0,1,2.587-1.331c.219-.016.382.164.655.463.575.633,1.443,1.588,2.834.995l.192.45A2.633,2.633,0,0,1,21.809,10.1ZM19.148,8.444Z"/><path class="e" d="M19.257,20.7c-1.3-1.084-.692-3.692-.29-5.418a6.276,6.276,0,0,0,.224-1.218,8.337,8.337,0,0,0-2.372-1.344l.192-.449c.546.233,2.349,1.037,2.621,1.583.112.223.028.609-.189,1.539-.352,1.511-.942,4.04.127,4.931Zm-.068-6.641Z"/><path class="e" d="M12,22.876h0a1.38,1.38,0,0,1-1.342-.722,14.249,14.249,0,0,0-1.793-1.861,5.9,5.9,0,0,1-1.842-3.646.24.24,0,0,1,.016-.135c1.729-4.153,4.782-4.846,4.911-4.873a.25.25,0,0,1,.1,0c.129.027,3.181.72,4.911,4.873a.249.249,0,0,1,.016.135,5.9,5.9,0,0,1-1.843,3.646,14.218,14.218,0,0,0-1.792,1.861A1.381,1.381,0,0,1,12,22.876Zm0-.488h0c.522,0,.573-.062.962-.542a14.746,14.746,0,0,1,1.848-1.918,5.4,5.4,0,0,0,1.673-3.293C14.968,13.06,12.4,12.237,12,12.13a7.4,7.4,0,0,0-4.484,4.505,5.4,5.4,0,0,0,1.673,3.293,14.746,14.746,0,0,1,1.848,1.918c.389.48.439.542.962.542Z"/></svg>