<svg xmlns="http://www.w3.org/2000/svg" viewBox="0 0 24 24"><defs><style>.a{fill:#db6f56;}.b{fill:#f5ef85;}.c{fill:#b64f3e;}.d{fill:#8e362a;}.e{fill:#f59384;}</style></defs><path class="a" d="M13.336,4.8C13.336,3.033,12,2.847,12,2.847s-1.336.186-1.336,1.954c0,0-2.8,1.151-2.8,6.374S9.306,20.14,12,20.14s4.133-3.743,4.133-8.965S13.336,4.8,13.336,4.8Z"/><path class="b" d="M12,8.4a5.2,5.2,0,0,1-2.067,1.645A9.518,9.518,0,0,1,12,16.336a9.518,9.518,0,0,1,2.067-6.293A5.2,5.2,0,0,1,12,8.4Z"/><path class="c" d="M12,18.337a4.044,4.044,0,0,1-3.325-1.356C9.363,18.952,10.482,20.14,12,20.14c2.693,0,4.133-3.743,4.133-8.965a10.373,10.373,0,0,0-.542-3.513C15.591,7.672,15.481,18.283,12,18.337Z"/><path class="d" d="M9.176,6.285c-.2-.063-5.023-1.6-5.743-5.074l.479-.1C4.573,4.3,9.274,5.8,9.322,5.819Z"/><path class="d" d="M1.454,12.784l-.416-.257c1.79-2.9,3.614-3.755,4.83-3.959a3.754,3.754,0,0,1,2.291.283l-.234.429C7.793,9.209,4.653,7.6,1.454,12.784Z"/><path class="d" d="M7.934,22.889c-1.3-.638-1.347-3.8-1.2-7.119.012-.259.021-.481.026-.654A1.594,1.594,0,0,1,7.276,13.8a.975.975,0,0,1,.8-.146l-.136.47a.482.482,0,0,0-.386.075,1.191,1.191,0,0,0-.311.932c0,.175-.015.4-.026.662-.073,1.661-.268,6.074.927,6.659Z"/><path class="d" d="M12,20.384c-2.7,0-4.377-3.528-4.377-9.209,0-4.693,2.2-6.2,2.8-6.528a1.972,1.972,0,0,1,1.544-2.042.258.258,0,0,1,.068,0,1.972,1.972,0,0,1,1.544,2.042c.6.326,2.8,1.835,2.8,6.528C16.377,16.856,14.7,20.384,12,20.384ZM12,3.1c-.188.041-1.093.312-1.093,1.705a.245.245,0,0,1-.151.226c-.026.01-2.646,1.174-2.646,6.148C8.111,16.554,9.6,19.9,12,19.9s3.889-3.342,3.889-8.721c0-4.974-2.62-6.138-2.647-6.149a.246.246,0,0,1-.15-.225C13.092,3.4,12.194,3.136,12,3.1Z"/><path class="d" d="M14.824,6.285l-.146-.466c.048-.015,4.749-1.517,5.41-4.708l.479.1C19.847,4.684,15.028,6.222,14.824,6.285Z"/><path class="d" d="M22.546,12.784c-3.2-5.189-6.339-3.575-6.471-3.5l-.234-.429a3.754,3.754,0,0,1,2.291-.283c1.216.2,3.04,1.056,4.83,3.959Z"/><path class="d" d="M16.066,22.889l-.215-.439c1.195-.585,1-5,.927-6.658-.011-.262-.021-.487-.026-.663a1.182,1.182,0,0,0-.315-.935.486.486,0,0,0-.379-.073l-.139-.469a.975.975,0,0,1,.8.146,1.594,1.594,0,0,1,.517,1.318c0,.173.014.4.026.655C17.413,19.091,17.368,22.251,16.066,22.889Z"/><path class="e" d="M9.084,16.39C7.374,8.951,10,6.225,10.117,6.112l.345.347-.173-.174.173.173c-.025.026-2.544,2.679-.9,9.823Z"/></svg>