<svg xmlns="http://www.w3.org/2000/svg" viewBox="0 0 24 24"><defs><style>.a{fill:#b85544;}.b{fill:#9a4135;}.c{fill:#6e2621;}.d{fill:#e07a6c;}</style></defs><path class="a" d="M12,3.848h0c-1.571,0-1.668,3.77-1.668,3.77h0a3.1,3.1,0,0,1,3.332,0h0S13.571,3.848,12,3.848Z"/><path class="b" d="M12.408,3.943S13.77,6.315,12.183,6.4a3.572,3.572,0,0,0-1.792.454c-.05.45-.059.769-.059.769h0a3.1,3.1,0,0,1,3.332,0h0S13.588,4.528,12.408,3.943Z"/><path class="a" d="M12,7.133c-2.484,0-4.5,3.05-4.5,6.813s2.013,6.813,4.5,6.813,4.5-3.05,4.5-6.813S14.484,7.133,12,7.133Z"/><path class="b" d="M14.973,8.836a7.543,7.543,0,0,1,.317,3.3c-.459,3.734-3.486,6.436-6.762,6.034-.02,0-.039-.007-.059-.009A4.206,4.206,0,0,0,12,20.759c2.484,0,4.5-3.05,4.5-6.813A8.637,8.637,0,0,0,14.973,8.836Z"/><path class="c" d="M11.425,4.235A2.934,2.934,0,0,1,9.307,1.158l.485.064a2.411,2.411,0,0,0,1.771,2.544Z"/><path class="c" d="M10.421,6.284,7.953,5.332a.245.245,0,0,1-.133-.124C7.532,4.6,6.591,2.939,5.7,2.643l.154-.464C7,2.561,8,4.466,8.219,4.911l2.377.917Z"/><path class="c" d="M4.288,11.212l-.219-.438A4.489,4.489,0,0,0,6.225,8.166a.246.246,0,0,1,.186-.177C7.2,7.822,8.416,9.3,8.651,9.6l-.383.3A4.6,4.6,0,0,0,6.641,8.474,4.9,4.9,0,0,1,4.288,11.212Z"/><path class="c" d="M4.792,22.842l-.4-.287c1.363-1.874.788-6.565.782-6.612a.244.244,0,0,1,.2-.271A3.863,3.863,0,0,0,7.3,14.129l.409.268a4.565,4.565,0,0,1-2.025,1.7C5.79,17.076,6.108,21.032,4.792,22.842Z"/><path class="c" d="M10.334,7.862a.172.172,0,0,1-.032,0,.246.246,0,0,1-.214-.249C10.1,7.2,10.241,3.6,12,3.6h.008c1.751.011,1.893,3.6,1.9,4.008a.246.246,0,0,1-.372.216,2.871,2.871,0,0,0-3.079,0A.251.251,0,0,1,10.334,7.862Zm1.66-3.77C11.04,4.1,10.689,6.059,10.6,7.2a3.3,3.3,0,0,1,2.8,0c-.089-1.145-.442-3.109-1.4-3.109Z"/><path class="c" d="M12,21c-2.615,0-4.742-3.166-4.742-7.058S9.385,6.889,12,6.889h0a4.132,4.132,0,0,1,3.384,2.1,9.067,9.067,0,0,1,1.358,4.952C16.742,17.838,14.615,21,12,21ZM12,7.377c-2.345,0-4.253,2.947-4.253,6.569S9.655,20.515,12,20.515s4.253-2.947,4.253-6.569a8.587,8.587,0,0,0-1.277-4.683A3.667,3.667,0,0,0,12,7.377Z"/><path class="c" d="M12.575,4.235l-.138-.469a2.41,2.41,0,0,0,1.771-2.543l.485-.065A2.936,2.936,0,0,1,12.575,4.235Z"/><path class="c" d="M13.579,6.284,13.4,5.828l2.378-.917C16,4.466,17,2.561,18.143,2.179l.155.464c-.889.3-1.83,1.952-2.118,2.565a.245.245,0,0,1-.133.124Z"/><path class="c" d="M19.712,11.212a4.9,4.9,0,0,1-2.353-2.738A4.587,4.587,0,0,0,15.732,9.9l-.383-.3c.235-.3,1.448-1.773,2.24-1.606a.243.243,0,0,1,.186.177,4.489,4.489,0,0,0,2.156,2.608Z"/><path class="c" d="M19.208,22.842c-1.316-1.81-1-5.766-.895-6.745a4.558,4.558,0,0,1-2.025-1.7l.409-.268a3.867,3.867,0,0,0,1.928,1.543.244.244,0,0,1,.2.271c-.006.047-.581,4.738.781,6.612Z"/><path class="d" d="M8.87,16.914c-1.319-6.22,1.869-8.752,2.006-8.857l.3.388-.148-.194.149.193c-.031.024-3.077,2.468-1.826,8.368Z"/></svg>