<svg width="116" height="115" viewBox="0 0 116 115" fill="none" xmlns="http://www.w3.org/2000/svg">
<path d="M47.5918 40.4144C47.5918 38.9624 48.1686 37.5698 49.1954 36.543C50.2221 35.5163 51.6147 34.9395 53.0668 34.9395H80.4417C81.8938 34.9395 83.2864 35.5163 84.3131 36.543C85.3399 37.5698 85.9167 38.9624 85.9167 40.4144V54.1019C85.9167 59.1841 83.8978 64.0581 80.3041 67.6518C76.7105 71.2455 71.8364 73.2644 66.7542 73.2644C61.6721 73.2644 56.798 71.2455 53.2043 67.6518C49.6107 64.0581 47.5918 59.1841 47.5918 54.1019V40.4144Z" fill="#50F005" stroke="#455B55" stroke-width="5.01874" stroke-linecap="round" stroke-linejoin="round"/>
<path d="M55.6133 32.9012V31.6388C55.6133 28.7247 56.6828 25.8166 59.3066 24.9908C63.5541 23.6541 69.9547 23.6541 74.2023 24.9908C76.826 25.8166 77.8956 28.7247 77.8956 31.6388V32.9012" fill="#689E56"/>
<path d="M55.6133 32.9012V31.6388C55.6133 28.7247 56.6828 25.8166 59.3066 24.9908C63.5541 23.6541 69.9547 23.6541 74.2023 24.9908C76.826 25.8166 77.8956 28.7247 77.8956 31.6388V32.9012" stroke="#455B55" stroke-width="5.01874" stroke-linecap="round" stroke-linejoin="round"/>
<path d="M84.5479 36.3083L94.1291 26.7271" stroke="#455B55" stroke-width="5.01874" stroke-linecap="round" stroke-linejoin="round"/>
<path d="M48.9601 36.3083L39.3789 26.7271" stroke="#455B55" stroke-width="5.01874" stroke-linecap="round" stroke-linejoin="round"/>
<path d="M50.3289 65.0522L39.3789 73.2647" stroke="#455B55" stroke-width="5.01874" stroke-linecap="round" stroke-linejoin="round"/>
<path d="M47.592 48.627H38.0107" stroke="#455B55" stroke-width="5.01874" stroke-linecap="round" stroke-linejoin="round"/>
<path d="M95.4972 48.627H85.916" stroke="#455B55" stroke-width="5.01874" stroke-linecap="round" stroke-linejoin="round"/>
<path d="M83.1797 65.0522L94.1297 73.2647" stroke="#455B55" stroke-width="5.01874" stroke-linecap="round" stroke-linejoin="round"/>
<path d="M66.7529 51.3643V73.2642" stroke="#455B55" stroke-width="5.01874" stroke-linecap="round" stroke-linejoin="round"/>
<path fill-rule="evenodd" clip-rule="evenodd" d="M115.646 48.6346C115.646 21.7971 93.7534 0.0512695 66.7609 0.0512695C39.7439 0.0512695 17.8594 21.7971 17.8594 48.6346C17.8594 75.4557 39.752 97.2015 66.7609 97.2015C93.7534 97.2015 115.646 75.4557 115.646 48.6346V48.6346ZM25.35 49.1649C25.3565 43.7165 26.4365 38.3228 28.5285 33.292C30.6204 28.2612 33.6832 23.692 37.5419 19.8454C41.4005 15.9989 45.9794 12.9505 51.0168 10.8744C56.0541 8.79827 61.4512 7.73521 66.8996 7.74593C72.3459 7.73736 77.7404 8.80212 82.775 10.8794C87.8095 12.9566 92.3854 16.0057 96.241 19.8522C100.097 23.6987 103.156 28.2674 105.246 33.297C107.335 38.3267 108.412 43.7187 108.417 49.1649C108.411 54.6105 107.333 60.0017 105.243 65.0304C103.154 70.059 100.094 74.6267 96.2381 78.4724C92.3826 82.3181 87.8071 85.3664 82.7731 87.4431C77.7391 89.5199 72.3452 90.5844 66.8996 90.5758C43.9462 90.5758 25.35 72.0368 25.35 49.1649V49.1649Z" fill="#BF7E1C"/>
<path fill-rule="evenodd" clip-rule="evenodd" d="M115.646 48.6346C115.646 21.7971 93.7534 0.0512695 66.7609 0.0512695C39.7439 0.0512695 17.8594 21.7971 17.8594 48.6346C17.8594 75.4557 39.752 97.2015 66.7609 97.2015C93.7534 97.2015 115.646 75.4557 115.646 48.6346V48.6346ZM25.35 49.1649C25.3565 43.7165 26.4365 38.3228 28.5285 33.292C30.6204 28.2612 33.6832 23.692 37.5419 19.8454C41.4005 15.9989 45.9794 12.9505 51.0168 10.8744C56.0541 8.79827 61.4512 7.73521 66.8996 7.74593C72.3459 7.73736 77.7404 8.80212 82.775 10.8794C87.8095 12.9566 92.3854 16.0057 96.241 19.8522C100.097 23.6987 103.156 28.2674 105.246 33.297C107.335 38.3267 108.412 43.7187 108.417 49.1649C108.411 54.6105 107.333 60.0017 105.243 65.0304C103.154 70.059 100.094 74.6267 96.2381 78.4724C92.3826 82.3181 87.8071 85.3664 82.7731 87.4431C77.7391 89.5199 72.3452 90.5844 66.8996 90.5758C43.9462 90.5758 25.35 72.0368 25.35 49.1649V49.1649Z" fill="#E3A23C"/>
<path d="M21.0772 79.7527C24.4049 76.4507 29.7793 76.4716 33.0813 79.7992L35.6437 82.3815C38.9457 85.7092 38.9248 91.0837 35.5972 94.3856L15.3476 114.479L0.827698 99.8459L21.0772 79.7527Z" fill="#E3A23C"/>
<path d="M21.0772 79.7527C24.4049 76.4507 29.7793 76.4716 33.0813 79.7992L35.6437 82.3815C38.9457 85.7092 38.9248 91.0837 35.5972 94.3856L23.7672 106.124L9.24728 91.4913L21.0772 79.7527Z" fill="#C4C4C4"/>
<path fill-rule="evenodd" clip-rule="evenodd" d="M95.3429 35.2943C95.3429 38.7561 98.0059 37.4489 98.0059 32.6374C98.0059 24.3459 91.294 17.6279 83.0025 17.6279C78.1789 17.6279 76.8777 20.2848 80.3456 20.2848C82.3159 20.2856 84.2667 20.6745 86.0867 21.4292C87.9067 22.1839 89.5602 23.2898 90.9528 24.6835C92.3454 26.0773 93.4499 27.7317 94.2032 29.5523C94.9564 31.3729 95.3437 33.324 95.3429 35.2943V35.2943Z" fill="#DFF5F0"/>
</svg>
