<svg xmlns="http://www.w3.org/2000/svg" viewBox="0 0 24 24"><defs><style>.a{fill:#fcf6b8;}.b{fill:#f5ef85;}.c{fill:#ef5165;}.d{fill:#6e2621;}</style></defs><path class="a" d="M12.659,14.045c0-1.292-.659-1.292-.659-1.292s-.659,0-.66,1.292.33,1.181.33,2.17-.11,1.813.33,1.813.33-.824.33-1.813S12.659,15.336,12.659,14.045Z"/><path class="b" d="M11.546,13.075h0s-2.4-4.864-4.931-5.963S.168,5.39,1.523,7.918,3.5,11.984,3.465,12.753,4.2,14.805,6.4,14.805a2.839,2.839,0,0,0-1.942,2.564c0,1.942,1.025,5.385,3.407,5.385a2.348,2.348,0,0,0,2.051-2.6c0-2.437,1.227-2.995,1.746-3,0-.274.012-.594.012-.935,0-.989-.329-.879-.33-2.17A1.869,1.869,0,0,1,11.546,13.075Z"/><path class="b" d="M17.385,7.112c-2.528,1.1-4.931,5.963-4.931,5.963h0a1.871,1.871,0,0,1,.205.97c0,1.291-.329,1.181-.329,2.17,0,.341.012.661.011.935.52.008,1.747.566,1.747,3a2.348,2.348,0,0,0,2.052,2.6c2.381,0,3.406-3.444,3.406-5.385A2.839,2.839,0,0,0,17.6,14.805c2.2,0,2.968-1.282,2.931-2.052s.586-2.307,1.942-4.835S19.912,6.013,17.385,7.112Z"/><path class="c" d="M6.578,16.746c.439-1.538,2.638-2.271.77-2.6s-.33-2.454-1.282-2.637-1.539-1.685-.7-2.894,2.806-.376,2.82-.37A5.493,5.493,0,0,0,6.615,7.112C4.087,6.013.168,5.39,1.523,7.918S3.5,11.984,3.465,12.753,4.2,14.805,6.4,14.805a2.839,2.839,0,0,0-1.942,2.564c0,1.942,1.025,5.385,3.407,5.385a2.267,2.267,0,0,0,1.923-1.637C5.744,21.852,6.175,18.159,6.578,16.746Z"/><path class="c" d="M17.385,7.112A5.479,5.479,0,0,0,15.81,8.244c.014-.006,1.981-.835,2.82.37s.257,2.711-.7,2.894.586,2.308-1.282,2.637.332,1.063.77,2.6c.4,1.413.834,5.105-3.206,4.371a2.267,2.267,0,0,0,1.924,1.637c2.381,0,3.406-3.444,3.406-5.385A2.839,2.839,0,0,0,17.6,14.805c2.2,0,2.968-1.282,2.931-2.052s.586-2.307,1.942-4.835S19.912,6.013,17.385,7.112Z"/><path class="d" d="M12,18.273h0a.493.493,0,0,1-.36-.147c-.244-.249-.234-.738-.221-1.415,0-.158.007-.325.007-.5a2.307,2.307,0,0,0-.137-.846,3.694,3.694,0,0,1-.193-1.324,1.783,1.783,0,0,1,.4-1.3.758.758,0,0,1,.5-.231h0a.758.758,0,0,1,.5.231,1.783,1.783,0,0,1,.4,1.3,3.694,3.694,0,0,1-.193,1.324,2.307,2.307,0,0,0-.137.846c0,.171,0,.338.007.5.013.677.023,1.166-.221,1.415A.493.493,0,0,1,12,18.273Zm-.01-.489h.023a2.81,2.81,0,0,0,.079-1.062c0-.161-.007-.331-.007-.506a2.788,2.788,0,0,1,.161-1,3.235,3.235,0,0,0,.169-1.174c0-.786-.267-1.026-.415-1.047-.149.021-.415.261-.415,1.047a3.235,3.235,0,0,0,.169,1.174,2.788,2.788,0,0,1,.161,1c0,.175,0,.345-.007.506a2.778,2.778,0,0,0,.081,1.063Z"/><path class="d" d="M7.861,23a3.218,3.218,0,0,1-2.815-2.1,8.382,8.382,0,0,1-.837-3.53,2.832,2.832,0,0,1,1.325-2.39A3.038,3.038,0,0,1,3.8,14.12a1.945,1.945,0,0,1-.575-1.378c.033-.7-.593-2.245-1.913-4.708C.917,7.306.9,6.742,1.251,6.359c.884-.96,3.819-.185,5.461.529,2.58,1.122,4.953,5.877,5.053,6.078a.272.272,0,0,1,.02.061.241.241,0,0,1-.03.174,1.7,1.7,0,0,0-.17.844,3.235,3.235,0,0,0,.169,1.174,2.788,2.788,0,0,1,.161,1c0,.174,0,.342-.007.5s-.006.3,0,.433a.245.245,0,0,1-.241.246c-.419.006-1.506.514-1.506,2.758A2.6,2.6,0,0,1,7.878,23ZM2.677,6.4a1.484,1.484,0,0,0-1.067.291c-.2.213-.153.587.129,1.112,1.4,2.613,2.009,4.144,1.97,4.962a1.451,1.451,0,0,0,.441,1.018A2.953,2.953,0,0,0,6.4,14.56a.245.245,0,0,1,.074.478A2.57,2.57,0,0,0,4.7,17.369a7.989,7.989,0,0,0,.785,3.311,2.847,2.847,0,0,0,2.368,1.83,2.106,2.106,0,0,0,1.817-2.357c0-2.272,1.036-3.067,1.747-3.219,0-.073,0-.149.005-.227,0-.157.006-.322.006-.492a2.307,2.307,0,0,0-.137-.846,3.694,3.694,0,0,1-.193-1.324,2.341,2.341,0,0,1,.175-.972C10.9,12.352,8.727,8.3,6.518,7.336A10.893,10.893,0,0,0,2.677,6.4Z"/><path class="d" d="M16.14,23h-.018a2.6,2.6,0,0,1-2.278-2.845c0-2.245-1.087-2.752-1.506-2.758a.245.245,0,0,1-.241-.245c0-.134,0-.278,0-.43s-.007-.33-.007-.5a2.788,2.788,0,0,1,.161-1,3.235,3.235,0,0,0,.169-1.174,1.7,1.7,0,0,0-.17-.844.244.244,0,0,1-.035-.126,17.843,17.843,0,0,1,1.559-2.707,9.422,9.422,0,0,1,3.518-3.48h0c1.643-.714,4.578-1.489,5.462-.529.353.383.334.947-.057,1.675-1.321,2.462-1.946,4-1.912,4.707A1.951,1.951,0,0,1,20.2,14.12a3.038,3.038,0,0,1-1.738.859,2.832,2.832,0,0,1,1.325,2.39,8.382,8.382,0,0,1-.837,3.53A3.216,3.216,0,0,1,16.14,23Zm-3.556-6.064c.712.151,1.748.946,1.748,3.219a2.093,2.093,0,0,0,1.817,2.357,2.844,2.844,0,0,0,2.368-1.83,7.989,7.989,0,0,0,.785-3.311,2.571,2.571,0,0,0-1.773-2.332.244.244,0,0,1,.075-.477,2.953,2.953,0,0,0,2.246-.777,1.451,1.451,0,0,0,.441-1.018c-.039-.818.569-2.349,1.97-4.962.282-.525.325-.9.128-1.112-.576-.626-3.049-.163-4.907.645h0c-2.211.962-4.38,5.015-4.753,5.737a2.341,2.341,0,0,1,.175.972,3.694,3.694,0,0,1-.193,1.324,2.307,2.307,0,0,0-.137.846c0,.172,0,.338.006.5C12.582,16.787,12.583,16.862,12.584,16.934Z"/><path class="d" d="M7.861,23a3.218,3.218,0,0,1-2.815-2.1,8.382,8.382,0,0,1-.837-3.53,2.832,2.832,0,0,1,1.325-2.39A3.038,3.038,0,0,1,3.8,14.12a1.945,1.945,0,0,1-.575-1.378c.033-.7-.593-2.245-1.913-4.708C.917,7.306.9,6.742,1.251,6.359c.884-.96,3.819-.185,5.461.529A5.708,5.708,0,0,1,8.361,8.069a.244.244,0,0,1-.266.4c-.018-.008-1.806-.746-2.525.285a1.879,1.879,0,0,0-.235,1.784,1.129,1.129,0,0,0,.777.73c.613.118.56.735.517,1.231-.067.779-.05,1.263.761,1.406.4.07.818.184.921.5.108.33-.177.628-.538,1.006a3.618,3.618,0,0,0-.96,1.4h0c-.318,1.114-.422,2.71.332,3.541a2.7,2.7,0,0,0,2.6.522.244.244,0,0,1,.278.309A2.539,2.539,0,0,1,7.878,23ZM2.677,6.4a1.484,1.484,0,0,0-1.067.291c-.2.213-.153.587.129,1.112,1.4,2.613,2.009,4.144,1.97,4.962a1.451,1.451,0,0,0,.441,1.018A2.953,2.953,0,0,0,6.4,14.56a.245.245,0,0,1,.074.478A2.57,2.57,0,0,0,4.7,17.369a7.989,7.989,0,0,0,.785,3.311A2.847,2.847,0,0,0,7.85,22.51,2.017,2.017,0,0,0,9.4,21.421a2.9,2.9,0,0,1-2.622-.739c-1.146-1.263-.568-3.556-.44-4h0a4.052,4.052,0,0,1,1.076-1.607,2.317,2.317,0,0,0,.423-.516,1.214,1.214,0,0,0-.537-.17C6,14.155,6.083,13.133,6.142,12.457c.047-.548.024-.681-.123-.709a1.61,1.61,0,0,1-1.137-1.026,2.368,2.368,0,0,1,.287-2.248A2.051,2.051,0,0,1,7.22,7.742a3.945,3.945,0,0,0-.7-.406A10.883,10.883,0,0,0,2.677,6.4Z"/><path class="d" d="M16.14,23h-.018a2.54,2.54,0,0,1-2.141-1.812.245.245,0,0,1,.278-.31,2.7,2.7,0,0,0,2.6-.522c.754-.832.65-2.427.332-3.541a3.618,3.618,0,0,0-.96-1.4c-.361-.378-.646-.676-.538-1.006.1-.314.523-.428.921-.5.81-.143.828-.627.761-1.406-.043-.5-.1-1.113.517-1.231a1.127,1.127,0,0,0,.777-.73,1.879,1.879,0,0,0-.235-1.784c-.72-1.033-2.507-.293-2.524-.285a.247.247,0,0,1-.3-.09.244.244,0,0,1,.033-.31,5.718,5.718,0,0,1,1.648-1.181h0c1.643-.714,4.578-1.489,5.462-.529.353.383.334.947-.057,1.675-1.321,2.462-1.946,4-1.912,4.707A1.951,1.951,0,0,1,20.2,14.12a3.038,3.038,0,0,1-1.738.859,2.832,2.832,0,0,1,1.325,2.39,8.382,8.382,0,0,1-.837,3.53A3.216,3.216,0,0,1,16.14,23ZM14.6,21.421A2.017,2.017,0,0,0,16.15,22.51a2.845,2.845,0,0,0,2.367-1.83,7.989,7.989,0,0,0,.785-3.311,2.571,2.571,0,0,0-1.773-2.332.244.244,0,0,1,.075-.477,2.953,2.953,0,0,0,2.246-.777,1.451,1.451,0,0,0,.441-1.018c-.039-.818.569-2.349,1.97-4.962.282-.525.325-.9.128-1.112-.576-.626-3.049-.163-4.907.645h0a3.964,3.964,0,0,0-.706.409,2.054,2.054,0,0,1,2.055.729,2.368,2.368,0,0,1,.287,2.248,1.608,1.608,0,0,1-1.137,1.026c-.147.028-.17.161-.123.709.058.676.146,1.7-1.163,1.929a1.214,1.214,0,0,0-.537.17,2.317,2.317,0,0,0,.423.516,4.052,4.052,0,0,1,1.076,1.607c.128.447.7,2.74-.44,4A2.9,2.9,0,0,1,14.6,21.421Z"/><path class="d" d="M11.944,12.822c-.017-.351-.385-8.623,1.977-11.1A2.135,2.135,0,0,1,15.5,1a3.262,3.262,0,0,1,2.389.846A2.55,2.55,0,0,1,18.6,3.655c0,1.165-.678,2.112-1.511,2.112a2.148,2.148,0,0,1-2.074-1c-.2-.432-.242-1.167.667-2.219l.37.319c-.586.678-.791,1.264-.593,1.7a1.724,1.724,0,0,0,1.63.711c.554,0,1.022-.744,1.022-1.624a2.064,2.064,0,0,0-.57-1.465,2.758,2.758,0,0,0-2.041-.7,1.644,1.644,0,0,0-1.228.568c-2.219,2.329-1.847,10.657-1.843,10.74Z"/><path class="d" d="M12.036,12.822l-.489-.024c0-.083.376-8.412-1.843-10.74A1.644,1.644,0,0,0,8.476,1.49a2.755,2.755,0,0,0-2.04.7,2.065,2.065,0,0,0-.571,1.465c0,.88.468,1.624,1.023,1.624a1.722,1.722,0,0,0,1.629-.711c.2-.432-.007-1.018-.592-1.7l.37-.319c.909,1.052.864,1.787.667,2.219a2.15,2.15,0,0,1-2.074,1c-.834,0-1.512-.947-1.512-2.112a2.551,2.551,0,0,1,.711-1.808A3.264,3.264,0,0,1,8.476,1a2.133,2.133,0,0,1,1.582.72C12.421,4.2,12.052,12.471,12.036,12.822Z"/></svg>