<svg xmlns="http://www.w3.org/2000/svg" viewBox="0 0 24 24"><defs><style>.a{fill:#d67d31;}.b{fill:#b76528;}.c{fill:#754c28;}.d{fill:#fab884;}</style></defs><path class="a" d="M14.911,12.46c0-3.881-1.147-4.1-1.147-4.1C14.691,6.241,13.1,5.4,13.1,5.4c0-.838-1.1-1.235-1.1-1.236h0s-1.1.4-1.1,1.236c0,0-1.588.838-.661,2.955,0,0-1.147.221-1.147,4.1S9.309,20,12,20h0C14.691,20,14.911,16.342,14.911,12.46Z"/><path class="b" d="M12,20h0c2.691,0,2.911-3.661,2.911-7.543s-1.147-4.1-1.147-4.1.8,5.9-1.234,7.355A3.326,3.326,0,0,1,9.191,15.6C9.407,18.108,10.064,20,12,20Z"/><path class="c" d="M4.613,23a1.251,1.251,0,0,1-.221-.02l.086-.481c.563.1.756-.545,1.06-2.04a18.512,18.512,0,0,1,.473-1.941,4.476,4.476,0,0,1,3.161-2.8l.1.478a4.053,4.053,0,0,0-2.8,2.475,17.965,17.965,0,0,0-.459,1.889C5.752,21.86,5.52,23,4.613,23Z"/><path class="c" d="M4.179,12.244v-.489c1.39,0,2.149-1.248,2.751-2.417C7.56,8.116,9.886,8.28,9.985,8.287l-.037.488c-.583-.044-2.183.011-2.583.787C6.882,10.5,5.983,12.244,4.179,12.244Z"/><path class="c" d="M4.179,9.264V8.775c.394,0,.587-1.587.728-2.746C5.179,3.789,5.518,1,7.346,1c2.9,0,4.422,3.123,4.485,3.256l-.441.211c-.014-.03-1.455-2.979-4.044-2.979-1.4,0-1.7,2.55-1.954,4.6C5.177,7.863,5.006,9.264,4.179,9.264Z"/><path class="c" d="M9.885,7.065a2.263,2.263,0,0,1-2.174-1.6L8.172,5.3a1.756,1.756,0,0,0,1.77,1.276l.049.487S9.95,7.065,9.885,7.065Z"/><path class="c" d="M12,20.248c-2.912,0-3.156-3.847-3.156-7.788,0-2.989.685-3.923,1.082-4.214a2.364,2.364,0,0,1,.735-2.981c.1-.9,1.206-1.309,1.255-1.327a.249.249,0,0,1,.164,0c.012,0,1.153.41,1.259,1.329a2.364,2.364,0,0,1,.735,2.981c.4.291,1.082,1.226,1.082,4.214C15.156,16.4,14.912,20.248,12,20.248ZM10.288,8.6c-.079.033-.955.477-.955,3.863,0,3.846.2,7.3,2.667,7.3s2.667-3.453,2.667-7.3c0-3.386-.876-3.83-.955-3.863a.218.218,0,0,1-.17-.116.24.24,0,0,1,0-.221c.82-1.873-.5-2.611-.553-2.642a.245.245,0,0,1-.129-.215c0-.538-.628-.868-.858-.971-.227.1-.858.432-.858.971a.245.245,0,0,1-.131.216c-.055.03-1.371.768-.551,2.641a.24.24,0,0,1,0,.221A.218.218,0,0,1,10.288,8.6Z"/><path class="c" d="M19.387,23c-.907,0-1.139-1.139-1.4-2.444a17.965,17.965,0,0,0-.459-1.889,4.037,4.037,0,0,0-2.8-2.475l.1-.478a4.476,4.476,0,0,1,3.161,2.8,18.5,18.5,0,0,1,.473,1.94c.3,1.5.5,2.142,1.06,2.041l.086.481A1.251,1.251,0,0,1,19.387,23Z"/><path class="c" d="M19.821,12.244c-1.8,0-2.7-1.745-3.186-2.682-.4-.776-2-.831-2.583-.787l-.037-.488c.1-.007,2.425-.171,3.055,1.051.6,1.169,1.361,2.417,2.751,2.417Z"/><path class="c" d="M19.821,9.264c-.828,0-1-1.4-1.213-3.176-.249-2.049-.559-4.6-1.954-4.6-2.589,0-4.03,2.949-4.044,2.979l-.441-.211C12.232,4.124,13.754,1,16.654,1c1.828,0,2.167,2.788,2.439,5.028.141,1.159.333,2.746.728,2.746Z"/><path class="c" d="M14.115,7.065c-.065,0-.1,0-.106,0l.049-.487A1.754,1.754,0,0,0,15.828,5.3l.461.163A2.263,2.263,0,0,1,14.115,7.065Z"/><path class="d" d="M9.882,15.292c-.385-5.542.621-6.4.737-6.484l.278.4.011-.009c-.009.008-.9.854-.538,6.057Z"/></svg>