<svg xmlns="http://www.w3.org/2000/svg" viewBox="0 0 24 24"><defs><style>.a{fill:#d67d31;}.b{fill:#b76528;}.c{fill:#754c28;}.d{fill:#fab884;}</style></defs><path class="a" d="M13.826,7.37A2.1,2.1,0,0,1,12,8.16a2.1,2.1,0,0,1-1.826-.79,15.971,15.971,0,0,0-1.119,6.262c0,3.877,1.566,7.306,2.945,7.306s2.945-3.429,2.945-7.306A15.971,15.971,0,0,0,13.826,7.37Z"/><path class="b" d="M13.826,7.37a2.146,2.146,0,0,1-.939.674A18.127,18.127,0,0,1,13.548,13c0,3.612-1.358,6.833-2.659,7.258A1.564,1.564,0,0,0,12,20.938c1.379,0,2.945-3.429,2.945-7.306A15.971,15.971,0,0,0,13.826,7.37Z"/><path class="a" d="M12,5.32s-1.172-.015-1.826,2.05A2.1,2.1,0,0,0,12,8.16a2.1,2.1,0,0,0,1.826-.79C13.172,5.305,12,5.32,12,5.32Z"/><path class="b" d="M12,5.32a.57.57,0,0,0-.105.011,3.276,3.276,0,0,1,1.137,1.784,2.1,2.1,0,0,1-1.826.79c-.133,0-.277,0-.429-.016A2.223,2.223,0,0,0,12,8.16a2.1,2.1,0,0,0,1.826-.79C13.172,5.305,12,5.32,12,5.32Z"/><path class="c" d="M10.068,7.59,8.2,6.7a.245.245,0,0,1-.138-.2c-.057-.612-.379-2.2-1.173-2.2V3.808c1.229,0,1.572,1.954,1.644,2.505l1.742.836Z"/><path class="c" d="M5.669,14.368l-.236-.428c.8-.442,1.314-2.395,1.443-3.11a.245.245,0,0,1,.189-.2l2.21-.483.1.478-2.054.448C7.2,11.688,6.689,13.806,5.669,14.368Z"/><path class="c" d="M8.094,22.951l-.388-.3c.73-.955-.237-4.493-.671-5.775a.244.244,0,0,1,.07-.262l1.87-1.641.322.368L7.549,16.878C7.853,17.809,9.043,21.709,8.094,22.951Z"/><path class="c" d="M12,21.183c-1.639,0-3.189-3.67-3.189-7.551A16.1,16.1,0,0,1,9.952,7.266a.245.245,0,0,1,.189-.138.242.242,0,0,1,.218.083A1.861,1.861,0,0,0,12,7.916a1.861,1.861,0,0,0,1.641-.7.241.241,0,0,1,.218-.083.243.243,0,0,1,.189.138,16.1,16.1,0,0,1,1.141,6.366C15.189,17.513,13.639,21.183,12,21.183ZM10.259,7.808A16.908,16.908,0,0,0,9.3,13.632c0,3.737,1.51,7.062,2.7,7.062s2.7-3.325,2.7-7.062a16.86,16.86,0,0,0-.959-5.824A2.323,2.323,0,0,1,12,8.4,2.323,2.323,0,0,1,10.259,7.808Z"/><path class="c" d="M12,8.4a2.334,2.334,0,0,1-2.012-.875A.243.243,0,0,1,9.941,7.3C10.628,5.126,11.9,5.076,12,5.075h0c.1,0,1.371.051,2.058,2.221a.243.243,0,0,1-.047.233A2.335,2.335,0,0,1,12,8.4ZM10.45,7.312a1.85,1.85,0,0,0,1.55.6,1.85,1.85,0,0,0,1.55-.6C12.961,5.6,12.005,5.563,12,5.564h0C11.954,5.565,11.034,5.607,10.45,7.312Z"/><path class="c" d="M13.932,7.59l-.211-.441,1.742-.836c.072-.551.415-2.5,1.644-2.5V4.3c-.794,0-1.116,1.589-1.173,2.2a.245.245,0,0,1-.138.2Z"/><path class="c" d="M18.331,14.368c-1.02-.562-1.529-2.68-1.657-3.29l-2.053-.448.1-.478,2.21.483a.245.245,0,0,1,.189.2c.129.715.641,2.668,1.443,3.11Z"/><path class="c" d="M15.906,22.951c-.949-1.242.241-5.142.545-6.073L14.7,15.344l.322-.368,1.87,1.641a.244.244,0,0,1,.07.262c-.434,1.283-1.4,4.82-.67,5.775Z"/><path class="c" d="M5.085,12.2a6.325,6.325,0,0,1-1.15-3.161V9.023c0-5.508,2.409-7.974,4.8-7.974,2.677,0,2.9,4.284,2.913,4.466l-.488.023c0-.04-.213-4-2.425-4-2.143,0-4.306,2.312-4.308,7.477A5.913,5.913,0,0,0,5.472,11.9Z"/><path class="c" d="M18.915,12.2l-.387-.3a5.913,5.913,0,0,0,1.049-2.883c0-5.165-2.165-7.477-4.308-7.477-2.216,0-2.423,3.96-2.425,4l-.488-.023c.008-.182.236-4.466,2.913-4.466,2.388,0,4.8,2.466,4.8,7.974v.014A6.325,6.325,0,0,1,18.915,12.2Z"/><path class="d" d="M10.331,17.036c-.895-3.045-.022-7.709.016-7.906l.48.092c-.009.047-.888,4.745-.027,7.676Z"/></svg>