<svg xmlns="http://www.w3.org/2000/svg" viewBox="0 0 24 24"><defs><style>.a{fill:#e1a46d;}.b{fill:#cb8d59;}.c{fill:#754c28;}.d{fill:#f8c091;}</style></defs><path class="a" d="M16.712,14.411c0-3.648-1.748-5.168-1.748-5.168A4.306,4.306,0,0,1,12,10.7h0A4.306,4.306,0,0,1,9.036,9.243s-1.748,1.52-1.748,5.168S8.808,22.7,12,22.7h0C15.192,22.7,16.712,18.059,16.712,14.411Z"/><path class="b" d="M14.964,9.243a6.239,6.239,0,0,1-.475.428,8.675,8.675,0,0,1,.722,3.64c0,3.648-1.52,8.284-4.712,8.285h0a3.1,3.1,0,0,1-1.106-.2A3.4,3.4,0,0,0,12,22.7h0c3.192,0,4.712-4.636,4.712-8.284S14.964,9.243,14.964,9.243Z"/><path class="a" d="M14.964,9.243A6.779,6.779,0,0,0,12,6.2h0a6.779,6.779,0,0,0-2.964,3.04A4.31,4.31,0,0,0,12,10.7,4.31,4.31,0,0,0,14.964,9.243Z"/><path class="b" d="M12,6.2h0s-.067.027-.183.088a8.121,8.121,0,0,1,2.141,2.54c-.716,1.59-2.963,1.455-2.964,1.455a2.741,2.741,0,0,1-.737-.107A3.6,3.6,0,0,0,12,10.7a4.31,4.31,0,0,0,2.964-1.455A6.779,6.779,0,0,0,12,6.2Z"/><path class="c" d="M6.138,22.75l-1.672-7.3a.244.244,0,0,1,.11-.263l2.583-1.6.257.416-2.435,1.5,1.633,7.126Z"/><path class="c" d="M1.326,11.723l-.16-.462L5.46,9.772a.246.246,0,0,1,.217.029L7.865,11.29l-.275.4L5.5,10.275Z"/><path class="c" d="M8.688,9.739,5.9,8.569a.245.245,0,0,1-.14-.158L5,5.738l.47-.134L6.2,8.164,8.877,9.289Z"/><path class="c" d="M10.552,7.14c-.014-.03-1.414-2.95-3.341-3.593a.241.241,0,0,1-.132-.1L5.787,1.314l.418-.254L7.451,3.113c2.08.76,3.483,3.692,3.543,3.818Z"/><path class="c" d="M12,22.94c-1.55,0-2.854-1.007-3.773-2.913a13.385,13.385,0,0,1-1.184-5.616c0-3.716,1.758-5.287,1.833-5.352a.245.245,0,0,1,.333.011,4.135,4.135,0,0,0,2.778,1.384h.025A4.129,4.129,0,0,0,14.791,9.07a.245.245,0,0,1,.333-.011c.075.065,1.832,1.636,1.832,5.352a13.385,13.385,0,0,1-1.183,5.616C14.854,21.933,13.549,22.94,12,22.94ZM9.042,9.589a7.2,7.2,0,0,0-1.51,4.822c0,3.338,1.386,8.04,4.468,8.04s4.468-4.7,4.468-8.04a7.2,7.2,0,0,0-1.511-4.822,4.445,4.445,0,0,1-3,1.35A4.5,4.5,0,0,1,9.042,9.589Z"/><path class="c" d="M12.023,10.943h-.041A4.653,4.653,0,0,1,8.863,9.416a.245.245,0,0,1-.04-.293,7.015,7.015,0,0,1,3.09-3.148.237.237,0,0,1,.17,0,7.035,7.035,0,0,1,3.094,3.149.245.245,0,0,1-.04.293A4.639,4.639,0,0,1,12.023,10.943ZM9.343,9.2a4.067,4.067,0,0,0,2.647,1.254h.019A4.055,4.055,0,0,0,14.657,9.2,6.867,6.867,0,0,0,12,6.472,6.862,6.862,0,0,0,9.343,9.2Z"/><path class="c" d="M17.862,22.75l-.476-.109,1.633-7.126-2.435-1.5.256-.416,2.584,1.6a.244.244,0,0,1,.11.263Z"/><path class="c" d="M22.674,11.723,18.5,10.275l-2.087,1.419-.275-.4L18.323,9.8a.245.245,0,0,1,.217-.029l4.294,1.489Z"/><path class="c" d="M15.312,9.739l-.19-.45L17.8,8.164l.728-2.56.47.134-.76,2.673a.244.244,0,0,1-.141.158Z"/><path class="c" d="M13.448,7.14l-.442-.209c.059-.126,1.463-3.058,3.543-3.818L17.8,1.06l.418.254L16.921,3.442a.241.241,0,0,1-.132.1C14.859,4.191,13.462,7.11,13.448,7.14Z"/><path class="d" d="M9.171,18.628a11.909,11.909,0,0,1-.256-7.492l.467.146a11.624,11.624,0,0,0,.237,7.149Z"/></svg>