<svg xmlns="http://www.w3.org/2000/svg" viewBox="0 0 24 24"><defs><style>.a{fill:#088c4c;}.b{fill:#006838;}.c{fill:#98a4d2;}.d{fill:#7785b2;}.e{fill:#ef5165;}.f{fill:#293654;}</style></defs><path class="a" d="M12,3.83h0s-3.292.8-3.292,3.63S11.113,10.12,12,10.12s3.293.169,3.293-2.66S12,3.83,12,3.83Z"/><path class="b" d="M8.725,7.855C8.942,10.27,11.157,10.12,12,10.12c.887,0,3.293.169,3.293-2.66a3.154,3.154,0,0,0-.415-1.6,2.553,2.553,0,0,1-2.1,2.346A8.12,8.12,0,0,1,8.725,7.855Z"/><path class="a" d="M13.646,9.97h0A5.758,5.758,0,0,1,12,10.12h0a5.763,5.763,0,0,1-1.646-.151h0S9.382,12.484,12,12.484h0C14.617,12.484,13.646,9.97,13.646,9.97Z"/><path class="a" d="M15.571,15.024a12.68,12.68,0,0,1-.8-2.595,2.885,2.885,0,0,0-1.127-.7,1.674,1.674,0,0,1-1.647.75,1.672,1.672,0,0,1-1.646-.75,2.892,2.892,0,0,0-1.128.7,12.558,12.558,0,0,1-.8,2.595C8.555,17.168,9.5,19.661,12,19.661h0C14.5,19.661,15.444,17.168,15.571,15.024Z"/><path class="b" d="M12,17.009a11.916,11.916,0,0,1-3.272-.219c.456,1.547,1.451,2.871,3.272,2.871h0c2.5,0,3.445-2.493,3.572-4.637a12.335,12.335,0,0,1-.431-1.156C14.679,15.243,13.762,16.892,12,17.009Z"/><path class="b" d="M13.646,9.97h0a1.745,1.745,0,0,1-1.829,1.521,3.62,3.62,0,0,1-1.626-.308c.071.643.469,1.3,1.809,1.3h0C14.617,12.484,13.646,9.97,13.646,9.97Z"/><path class="c" d="M8.707,7.46a3.308,3.308,0,0,1,.083-.75h0S-.032,13.16,1.4,17.55s8.1.514,8.1-8.018A2.522,2.522,0,0,1,8.707,7.46Z"/><path class="c" d="M15.292,7.46a3.365,3.365,0,0,0-.083-.75h0s8.822,6.45,7.387,10.84-8.1.514-8.1-8.018A2.525,2.525,0,0,0,15.292,7.46Z"/><path class="d" d="M15.209,6.71h0a3.365,3.365,0,0,1,.083.75c0,.062,0,.121,0,.18,2.352,1.943,7.31,6.535,6.207,9.91a2.412,2.412,0,0,1-1.674,1.76A2.279,2.279,0,0,0,22.6,17.55C24.031,13.16,15.209,6.71,15.209,6.71Z"/><path class="d" d="M8.79,6.71h0a3.306,3.306,0,0,0-.084.75c0,.062,0,.121,0,.18C6.358,9.583,1.4,14.175,2.5,17.55a2.412,2.412,0,0,0,1.674,1.76A2.278,2.278,0,0,1,1.4,17.55C-.032,13.16,8.79,6.71,8.79,6.71Z"/><path class="e" d="M12,1.592h0c-1.309,0-3.124.464-3.124,1.984s1.478,1.008,1.478,1.008h0A5.715,5.715,0,0,1,12,3.83a5.69,5.69,0,0,1,1.646.754h0s1.477.512,1.477-1.008S13.308,1.592,12,1.592Z"/><path class="f" d="M2.965,23v-.489c1.29,0,1.785-1.718,2.256-3.795l.477.108C5.179,21.106,4.616,23,2.965,23Z"/><path class="f" d="M3.613,19.617a2.564,2.564,0,0,1-2.442-1.991C-.3,13.119,8.279,6.78,8.646,6.513a.244.244,0,0,1,.382.252,3.11,3.11,0,0,0-.077.7,2.332,2.332,0,0,0,.706,1.885.242.242,0,0,1,.088.187c0,5.648-2.949,9.613-5.681,10.048A2.808,2.808,0,0,1,3.613,19.617ZM8.467,7.264c-1.784,1.4-8.015,6.591-6.832,10.21A2.034,2.034,0,0,0,3.988,19.1a5.676,5.676,0,0,0,3.476-2.771A12.465,12.465,0,0,0,9.256,9.642,2.845,2.845,0,0,1,8.462,7.46C8.462,7.4,8.464,7.329,8.467,7.264Z"/><path class="f" d="M7.908,7.525c-.289-.147-2.824-1.477-2.779-2.859.043-1.359-.388-3.093-.954-3.18L4.249,1c1.107.17,1.4,2.6,1.368,3.679-.029.91,1.8,2.046,2.513,2.407Z"/><path class="f" d="M11.67,10.366A3.434,3.434,0,0,1,9.205,9.6,2.889,2.889,0,0,1,8.462,7.46c0-2.974,3.336-3.832,3.478-3.868a.261.261,0,0,1,.118,0c.142.036,3.479.894,3.479,3.868A2.886,2.886,0,0,1,14.793,9.6a3.635,3.635,0,0,1-2.653.77h-.47ZM12,4.082c-.439.122-3.048.95-3.048,3.378a2.42,2.42,0,0,0,.6,1.787,3.179,3.179,0,0,0,2.3.629h.29a3.183,3.183,0,0,0,2.3-.629,2.425,2.425,0,0,0,.6-1.787C15.048,5.032,12.439,4.2,12,4.082Z"/><path class="f" d="M12,12.728a2.008,2.008,0,0,1-1.777-.736,2.548,2.548,0,0,1-.1-2.107.243.243,0,0,1,.3-.15,5.075,5.075,0,0,0,1.436.141h.284a5.079,5.079,0,0,0,1.437-.141.242.242,0,0,1,.258.082.222.222,0,0,1,.038.065,2.557,2.557,0,0,1-.1,2.11A2.008,2.008,0,0,1,12,12.728Zm-1.481-2.465a1.868,1.868,0,0,0,.108,1.454A1.566,1.566,0,0,0,12,12.24a1.565,1.565,0,0,0,1.374-.524,1.888,1.888,0,0,0,.11-1.454,6.032,6.032,0,0,1-1.346.1h-.276A6.059,6.059,0,0,1,10.518,10.263Z"/><path class="f" d="M21.033,23c-1.65,0-2.214-1.891-2.732-4.176l.476-.108c.472,2.077.967,3.795,2.256,3.795Z"/><path class="f" d="M20.386,19.617a2.82,2.82,0,0,1-.452-.037c-2.732-.435-5.68-4.4-5.68-10.048a.244.244,0,0,1,.087-.187,2.332,2.332,0,0,0,.707-1.885,3.123,3.123,0,0,0-.077-.7.243.243,0,0,1,.139-.278c.149-.066.149-.067.95.571.4.317,1.015.825,1.706,1.449,2.833,2.557,6.011,6.215,5.062,9.119A2.566,2.566,0,0,1,20.386,19.617ZM14.743,9.642a12.456,12.456,0,0,0,1.792,6.685A5.676,5.676,0,0,0,20.011,19.1a2.032,2.032,0,0,0,2.352-1.624c1.177-3.6-5.047-8.808-6.831-10.209,0,.065.005.13.005.2A2.846,2.846,0,0,1,14.743,9.642Z"/><path class="f" d="M12,19.905c-2.6,0-3.676-2.514-3.816-4.867a.256.256,0,0,1,.02-.112,12.328,12.328,0,0,0,.782-2.544.248.248,0,0,1,.068-.126,3.152,3.152,0,0,1,1.23-.756.252.252,0,0,1,.106-.008.246.246,0,0,1,.18.127A1.476,1.476,0,0,0,12,12.24a1.478,1.478,0,0,0,1.431-.621.246.246,0,0,1,.18-.127.258.258,0,0,1,.107.008,3.173,3.173,0,0,1,1.229.756.242.242,0,0,1,.067.126,12.351,12.351,0,0,0,.782,2.544.23.23,0,0,1,.02.112C15.675,17.391,14.6,19.905,12,19.905ZM8.675,15.067c.14,2.114,1.084,4.349,3.324,4.349s3.185-2.235,3.325-4.349a12.777,12.777,0,0,1-.775-2.515,2.763,2.763,0,0,0-.8-.52,2.03,2.03,0,0,1-1.748.7,2.028,2.028,0,0,1-1.747-.7,2.763,2.763,0,0,0-.8.52A12.887,12.887,0,0,1,8.675,15.067Z"/><path class="f" d="M16.091,7.525l-.222-.436c.709-.361,2.542-1.5,2.512-2.407C18.346,3.6,18.642,1.173,19.749,1l.074.483c-.566.087-1,1.821-.953,3.18C18.914,6.048,16.38,7.378,16.091,7.525Z"/><path class="f" d="M14.17,4.911a1.988,1.988,0,0,1-.6-.1.251.251,0,0,1-.057-.028,5.593,5.593,0,0,0-1.51-.7,5.6,5.6,0,0,0-1.509.7.251.251,0,0,1-.057.028A1.629,1.629,0,0,1,9.1,4.7a1.3,1.3,0,0,1-.473-1.128c0-1.645,1.814-2.228,3.368-2.228h0c1.554,0,3.369.583,3.369,2.228A1.3,1.3,0,0,1,14.894,4.7,1.237,1.237,0,0,1,14.17,4.911Zm-.418-.55a1.106,1.106,0,0,0,.86-.057.846.846,0,0,0,.267-.728c0-1.691-2.585-1.739-2.88-1.739h0c-.295,0-2.879.048-2.879,1.739a.845.845,0,0,0,.268.729,1.116,1.116,0,0,0,.859.056,5.893,5.893,0,0,1,1.7-.771.256.256,0,0,1,.083,0A5.933,5.933,0,0,1,13.752,4.361Z"/></svg>