<svg xmlns="http://www.w3.org/2000/svg" viewBox="0 0 24 24"><defs><style>.a{fill:#98a4d2;}.b{fill:#7380af;}.c{fill:#7785b2;}.d{fill:#3c4a69;}</style></defs><path class="a" d="M11.388,9.21A11.875,11.875,0,0,0,1.246,13.98S6.4,17.429,11.388,9.21Z"/><path class="b" d="M12,19.143c2.136-6.426.005-8.336,0-8.34h0c-.005,0-2.136,1.914,0,8.34h0Z"/><path class="b" d="M12,8.062h0c-1.291,1.152-.205,2.989-.2,2.99A1.562,1.562,0,0,1,12,10.8a1.5,1.5,0,0,1,.2.249S13.29,9.214,12,8.062Z"/><path class="a" d="M12.612,9.21a11.875,11.875,0,0,1,10.142,4.77S17.6,17.429,12.612,9.21Z"/><path class="c" d="M13.333,9.18a6.412,6.412,0,0,0-.721.03c4.99,8.219,10.142,4.77,10.142,4.77-.222-.284-.449-.55-.679-.8C20.612,13.755,17,14.414,13.333,9.18Z"/><path class="c" d="M10.667,9.18a6.412,6.412,0,0,1,.721.03C6.4,17.429,1.246,13.98,1.246,13.98c.222-.284.449-.55.679-.8C3.388,13.755,7,14.414,10.667,9.18Z"/><path class="b" d="M12.646,7.426A.64.64,0,0,0,12,6.791h0a.636.636,0,1,0,0,1.271h0A.641.641,0,0,0,12.646,7.426Z"/><rect class="d" x="11.756" y="4.209" width="0.489" height="2.582"/><path class="d" d="M11.365,8.9,8.289,6.241A.245.245,0,0,1,8.212,6c.005-.02.5-2.02-.3-2.8A13.034,13.034,0,0,0,5.547,1.5l.236-.429A13.39,13.39,0,0,1,8.257,2.843c.86.846.573,2.6.463,3.124l2.965,2.561Z"/><path class="d" d="M3.951,14.944a5.431,5.431,0,0,1-2.841-.761A.239.239,0,0,1,1,14.018a.247.247,0,0,1,.048-.189A12.534,12.534,0,0,1,7.869,9.3a10.508,10.508,0,0,1,3.549-.335.244.244,0,0,1,.179.369c-1.889,3.112-4.024,4.95-6.344,5.463A6.042,6.042,0,0,1,3.951,14.944ZM1.617,13.908a5.354,5.354,0,0,0,3.541.412c2.1-.468,4.047-2.112,5.806-4.89A11.832,11.832,0,0,0,1.617,13.908Z"/><path class="d" d="M7.024,22.925l-.418-.254L8.98,18.757l-.626-3.744a.242.242,0,0,1,.078-.222l2.585-2.314.326.365L8.858,15.065l.619,3.7a.245.245,0,0,1-.032.167Z"/><path class="d" d="M4.589,21.1,4.2,20.8l2.343-3.118L5.434,14.519l.461-.162,1.15,3.291a.243.243,0,0,1-.035.227Z"/><path class="d" d="M12,19.388a.244.244,0,0,1-.235-.178c-2.121-6.39-.089-8.44.066-8.584a.239.239,0,0,1,.15-.067h.039a.26.26,0,0,1,.1.028.254.254,0,0,1,.063.049c.219.217,2.125,2.343.056,8.574a.239.239,0,0,1-.044.087A.247.247,0,0,1,12,19.388Zm0-8.2c-.408.6-1.348,2.605,0,7.14C13.349,13.8,12.409,11.791,12,11.19Z"/><path class="d" d="M12.2,11.3h-.011a.244.244,0,0,1-.19-.1l0-.005,0,.005a.244.244,0,0,1-.412-.016c-.049-.082-1.164-2.031.252-3.3a.245.245,0,0,1,.326,0c1.458,1.3.244,3.311.229,3.328A.243.243,0,0,1,12.2,11.3Zm-.2-.738a.233.233,0,0,1,.059.008.22.22,0,0,1,.09.045A2.109,2.109,0,0,0,12,8.41a2.113,2.113,0,0,0-.148,2.2.239.239,0,0,1,.039-.026A.243.243,0,0,1,12,10.558Z"/><path class="d" d="M12.635,8.9l-.319-.37L15.28,5.967c-.11-.526-.4-2.278.463-3.124a13.383,13.383,0,0,1,2.475-1.768l.236.429a13.111,13.111,0,0,0-2.369,1.688c-.8.784-.3,2.784-.3,2.8a.245.245,0,0,1-.077.245Z"/><path class="d" d="M20.049,14.944a6.027,6.027,0,0,1-1.3-.144c-2.321-.513-4.456-2.351-6.345-5.463a.244.244,0,0,1,.179-.369,10.514,10.514,0,0,1,3.55.335,12.536,12.536,0,0,1,6.815,4.526.247.247,0,0,1,.048.189.239.239,0,0,1-.105.165A5.431,5.431,0,0,1,20.049,14.944ZM13.036,9.43c1.762,2.783,3.718,4.428,5.817,4.892a5.333,5.333,0,0,0,3.531-.413A11.832,11.832,0,0,0,13.036,9.43Z"/><path class="d" d="M16.976,22.925l-2.421-3.992a.251.251,0,0,1-.032-.167l.619-3.7-2.484-2.223.326-.365,2.584,2.314a.242.242,0,0,1,.078.222l-.626,3.744,2.374,3.914Z"/><path class="d" d="M19.411,21.1,16.99,17.875a.243.243,0,0,1-.035-.227l1.15-3.291.461.162-1.107,3.167L19.8,20.8Z"/><path class="d" d="M12,8.306a.88.88,0,1,1,.89-.88A.886.886,0,0,1,12,8.306Zm0-1.271a.391.391,0,1,0,.4.391A.4.4,0,0,0,12,7.035Z"/></svg>