<svg xmlns="http://www.w3.org/2000/svg" viewBox="0 0 24 24"><defs><style>.a{fill:#088c4c;}.b{fill:#98a4d2;}.c{fill:#006838;}.d{fill:#7785b2;}.e{fill:#293654;}</style></defs><path class="a" d="M12.63,10.01A1.558,1.558,0,0,0,12,9.9a1.558,1.558,0,0,0-.63.106s-1.383,4.539-.947,6.87S12,19.034,12,19.034s1.142.176,1.577-2.154S12.63,10.01,12.63,10.01Z"/><path class="b" d="M11,9.086S5.9,11.476,5.572,16.091s1.7,4.826,4.851.789c-.436-2.331.947-6.87.947-6.87A5.161,5.161,0,0,1,11,9.086Z"/><path class="a" d="M13.577,5.9c0-.73-.282-.73-.894-1.013a1.134,1.134,0,0,1-.683-.8,1.134,1.134,0,0,1-.683.8c-.612.283-.894.283-.894,1.013s1.412.706,1.412,1.46c0,0-.965.188-.965.965a4.268,4.268,0,0,0,.5,1.689A1.558,1.558,0,0,1,12,9.9a1.558,1.558,0,0,1,.63.106,4.268,4.268,0,0,0,.5-1.689c0-.777-.965-.965-.965-.965C12.165,6.6,13.577,6.626,13.577,5.9Z"/><path class="c" d="M12.385,16.906a2.485,2.485,0,0,1-1.878.359C10.989,19.19,12,19.034,12,19.034s1.142.176,1.577-2.154-.947-6.87-.947-6.87S13.87,16.132,12.385,16.906Z"/><path class="b" d="M13.005,9.086s5.093,2.39,5.423,7.005-1.7,4.826-4.851.789c.436-2.331-.947-6.87-.947-6.87A5.161,5.161,0,0,0,13.005,9.086Z"/><path class="d" d="M18.428,16.091c-.33-4.615-5.422-7-5.423-7.005-.049.168-.106.326-.161.462,1.456.9,4.35,3.1,4.6,6.543.144,2.021-.163,3.2-.819,3.542C17.932,20.116,18.632,18.949,18.428,16.091Z"/><path class="d" d="M5.572,16.091c.33-4.615,5.422-7,5.423-7.005.049.168.106.326.161.462-1.456.9-4.35,3.1-4.6,6.543-.144,2.021.163,3.2.819,3.542C6.068,20.116,5.368,18.949,5.572,16.091Z"/><path class="e" d="M10.706,8.669,7.8,5.762a.244.244,0,0,1-.067-.218c.286-1.522.422-3.848-.2-4l.119-.475c1.223.306.745,3.514.58,4.441l2.814,2.815Z"/><path class="e" d="M6.841,19.985a1.22,1.22,0,0,1-.441-.08c-.869-.334-1.229-1.623-1.072-3.831.338-4.732,5.538-7.2,5.59-7.219a.242.242,0,0,1,.19.015.246.246,0,0,1,.122.148,4.931,4.931,0,0,0,.355.875.249.249,0,0,1,.019.189c-.014.044-1.361,4.508-.941,6.753a.244.244,0,0,1-.048.2C9.094,18.977,7.8,19.985,6.841,19.985ZM10.852,9.436c-1.007.545-4.761,2.829-5.036,6.672-.137,1.914.133,3.1.76,3.341.736.283,2.041-.676,3.587-2.635-.355-2.222.745-6.1.945-6.779A5.481,5.481,0,0,1,10.852,9.436Z"/><path class="e" d="M9.305,22.933l-.426-.24.636-1.13c.459-.815-.4-2.358-.766-2.884l.4-.281c.061.088,1.5,2.154.792,3.4Z"/><path class="e" d="M2.735,12.509A5.963,5.963,0,0,1,1.182,12.3l.127-.472a5.275,5.275,0,0,0,5.177-1.452c.188-.158.349-.3.491-.392a2.823,2.823,0,0,1,2.356-.023l-.19.45c-.012-.005-1.2-.494-1.891-.023-.12.082-.273.211-.449.361A6.134,6.134,0,0,1,2.735,12.509Z"/><path class="e" d="M12.63,10.255a.237.237,0,0,1-.107-.025h0a1.728,1.728,0,0,0-1.049,0,.246.246,0,0,1-.318-.1,4.469,4.469,0,0,1-.531-1.807,1.254,1.254,0,0,1,.912-1.133,1.45,1.45,0,0,0-.527-.358c-.371-.188-.832-.422-.832-.934,0-.751.29-.912.8-1.131.071-.031.15-.064.235-.1a.894.894,0,0,0,.543-.614A.249.249,0,0,1,12,3.84a.243.243,0,0,1,.239.21.9.9,0,0,0,.543.611c.085.04.163.073.235.1.512.219.8.38.8,1.131,0,.512-.461.746-.832.934a1.46,1.46,0,0,0-.527.358,1.254,1.254,0,0,1,.912,1.133,4.469,4.469,0,0,1-.531,1.807A.244.244,0,0,1,12.63,10.255ZM12,7.536a.232.232,0,0,1-.118.059c-.03.007-.768.162-.768.726A3.644,3.644,0,0,0,11.5,9.714a2.379,2.379,0,0,1,1.008,0,3.66,3.66,0,0,0,.382-1.393c0-.569-.76-.724-.768-.726A.232.232,0,0,1,12,7.536Zm0-2.887a1.508,1.508,0,0,1-.58.456c-.09.041-.172.077-.248.109-.428.184-.505.217-.505.682,0,.2.213.32.564.5A1.613,1.613,0,0,1,12,7.008a1.613,1.613,0,0,1,.769-.613c.351-.179.564-.3.564-.5,0-.465-.077-.5-.505-.682-.076-.032-.158-.068-.248-.109A1.508,1.508,0,0,1,12,4.649Z"/><path class="e" d="M11.948,19.281c-.315,0-1.357-.171-1.766-2.357-.441-2.362.9-6.8.954-6.985a.247.247,0,0,1,.127-.149A1.793,1.793,0,0,1,12,9.66a1.764,1.764,0,0,1,.737.131.238.238,0,0,1,.126.148c.058.188,1.4,4.623.955,6.985-.436,2.33-1.59,2.371-1.818,2.355ZM12,18.79l.036,0c.006,0,.92.079,1.3-1.957s-.7-5.91-.906-6.635a1.847,1.847,0,0,0-.862,0c-.211.726-1.287,4.6-.906,6.635s1.3,1.958,1.3,1.957A.172.172,0,0,1,12,18.79Z"/><path class="e" d="M13.3,8.668l-.346-.345,2.814-2.816c-.165-.926-.643-4.134.581-4.44l.118.475c-.618.154-.482,2.48-.2,4a.246.246,0,0,1-.067.219C15.822,6.139,13.3,8.668,13.3,8.668Z"/><path class="e" d="M17.16,19.985c-.962,0-2.254-1.008-3.775-2.955a.244.244,0,0,1-.048-.2c.42-2.245-.928-6.709-.941-6.753a.249.249,0,0,1,.019-.189,5.009,5.009,0,0,0,.356-.875.243.243,0,0,1,.3-.166c.052.014,5.259,2.453,5.6,7.222.157,2.208-.2,3.5-1.072,3.831A1.218,1.218,0,0,1,17.16,19.985Zm-3.323-3.171c1.546,1.959,2.85,2.918,3.587,2.635.627-.241.9-1.427.76-3.341-.275-3.845-4.029-6.128-5.036-6.673a5.429,5.429,0,0,1-.256.6C13.092,10.711,14.192,14.592,13.837,16.814Z"/><path class="e" d="M14.7,22.933,14.059,21.8c-.7-1.25.731-3.316.792-3.4l.4.281c-.368.526-1.225,2.069-.766,2.884l.636,1.13Z"/><path class="e" d="M21.265,12.509A6.134,6.134,0,0,1,17.2,10.744c-.176-.15-.329-.279-.449-.361-.691-.471-1.879.018-1.891.023l-.19-.45a2.823,2.823,0,0,1,2.356.023c.142.1.3.234.491.392a5.275,5.275,0,0,0,5.177,1.452l.127.472A5.963,5.963,0,0,1,21.265,12.509Z"/></svg>