<svg xmlns="http://www.w3.org/2000/svg" viewBox="0 0 24 24"><defs><style>.a{fill:#946fb0;}.b{fill:#7d55a2;}.c{fill:#4d316d;}.d{fill:#b493c4;}</style></defs><path class="a" d="M12,7.038s-2.119.216-2.119,1.885.395,2.138,1.06,2.138h0A5.563,5.563,0,0,1,12,10.809a5.563,5.563,0,0,1,1.058.252h0c.664,0,1.06-.468,1.06-2.138S12,7.038,12,7.038Z"/><path class="a" d="M12,10.809s-3.591.4-3.591,3.3S9.989,19.283,12,19.283s3.591-2.262,3.591-5.171S12,10.809,12,10.809Z"/><path class="a" d="M12,10.809s-3.591.4-3.591,3.3S9.989,19.283,12,19.283s3.591-2.262,3.591-5.171S12,10.809,12,10.809Z"/><path class="b" d="M13.617,7.737c.1.663.149,1.856-.9,1.845-1.451-.015-1.054-.085-1.543.232A.847.847,0,0,1,9.926,9.77c.12.987.48,1.291,1.015,1.291h0A5.563,5.563,0,0,1,12,10.809a5.563,5.563,0,0,1,1.058.252h0c.664,0,1.06-.468,1.06-2.138A1.579,1.579,0,0,0,13.617,7.737Z"/><path class="b" d="M8.413,14.333c.078,2.8,1.628,4.95,3.587,4.95,2.011,0,3.591-2.262,3.591-5.171a2.817,2.817,0,0,0-1.058-2.258h0s.461,3.991-2.35,3.991S10.2,14.166,8.413,14.333Z"/><path class="c" d="M11.231,7.415a1.264,1.264,0,0,1-.636-.788,2.278,2.278,0,0,1,.539-1.857l.4.281a1.885,1.885,0,0,0-.468,1.441.761.761,0,0,0,.373.48Z"/><path class="c" d="M9.979,8.469A2.334,2.334,0,0,1,8.165,6.043a7.736,7.736,0,0,1,.374-2.028A9.038,9.038,0,0,0,8.973,1.15h.488a9.575,9.575,0,0,1-.452,3,7.337,7.337,0,0,0-.356,1.912,1.812,1.812,0,0,0,1.422,1.927Z"/><path class="c" d="M9.9,9.814C9.755,9.808,6.441,9.648,6.059,7.6c-.121-.651-.191-1.48-.259-2.283-.086-1.017-.23-2.72-.5-2.851L5.3,1.973c.673,0,.806,1.192.985,3.3.066.791.136,1.608.252,2.234C6.851,9.18,9.885,9.324,9.916,9.326Z"/><path class="c" d="M1.282,18.564,1.21,18.08c1.076-.161,2.31-3.97,2.837-5.6,1-3.073,5.871-2.307,6.078-2.272l-.079.482c-.047-.008-4.667-.734-5.534,1.94C3.367,16.168,2.427,18.392,1.282,18.564Z"/><path class="c" d="M7.231,22.85l-.3-.384c1.087-.853.164-3.733-.51-5.837-.572-1.785-.88-2.817-.574-3.288.712-1.091,3.616-1.832,3.739-1.863l.12.474c-.789.2-2.945.883-3.449,1.656-.2.3.243,1.666.629,2.872C7.643,18.845,8.586,21.788,7.231,22.85Z"/><path class="c" d="M12,19.527c-2.151,0-3.835-2.378-3.835-5.415,0-3.092,3.77-3.542,3.808-3.546a.244.244,0,0,1,.054,0c.038,0,3.808.454,3.808,3.546C15.835,17.149,14.151,19.527,12,19.527Zm0-8.472c-.342.043-3.346.5-3.346,3.057,0,2.763,1.469,4.926,3.346,4.926s3.346-2.163,3.346-4.926C15.346,11.556,12.341,11.1,12,11.055Z"/><path class="c" d="M13.059,11.305a.238.238,0,0,1-.079-.013,5.559,5.559,0,0,0-.98-.237,5.559,5.559,0,0,0-.98.237.228.228,0,0,1-.078.013c-1.15,0-1.3-1.2-1.3-2.382,0-1.495,1.529-2.046,2.338-2.128a.209.209,0,0,1,.05,0c.808.082,2.338.633,2.338,2.128C14.363,10.1,14.208,11.305,13.059,11.305ZM12,7.284c-.234.03-1.874.286-1.874,1.639,0,1.812.486,1.89.777,1.893a5.826,5.826,0,0,1,1.07-.25.244.244,0,0,1,.054,0,5.826,5.826,0,0,1,1.07.25c.293,0,.777-.083.777-1.893C13.874,7.57,12.234,7.314,12,7.284Z"/><path class="c" d="M12.769,7.415l-.207-.443a.761.761,0,0,0,.373-.48,1.886,1.886,0,0,0-.468-1.44l.4-.282a2.278,2.278,0,0,1,.539,1.857A1.267,1.267,0,0,1,12.769,7.415Z"/><path class="c" d="M14.021,8.469l-.1-.48.048.24-.048-.24a1.824,1.824,0,0,0,1.422-1.927,7.337,7.337,0,0,0-.356-1.912,9.575,9.575,0,0,1-.452-3h.489a9.043,9.043,0,0,0,.433,2.865,7.736,7.736,0,0,1,.374,2.028A2.334,2.334,0,0,1,14.021,8.469Z"/><path class="c" d="M14.1,9.814l-.02-.488c.031,0,3.066-.149,3.376-1.821.117-.626.186-1.443.253-2.234.178-2.106.311-3.3.984-3.3v.489c-.267.13-.411,1.833-.5,2.85-.068.8-.138,1.632-.259,2.283C17.559,9.648,14.245,9.808,14.1,9.814Z"/><path class="c" d="M22.718,18.564c-1.146-.172-2.085-2.4-3.23-5.93-.868-2.677-5.487-1.948-5.534-1.94l-.079-.482c.207-.034,5.082-.8,6.078,2.272.527,1.626,1.761,5.435,2.837,5.6Z"/><path class="c" d="M16.769,22.85c-1.355-1.062-.412-4.005.346-6.37.386-1.206.824-2.573.629-2.872-.5-.774-2.66-1.458-3.448-1.656l.119-.474c.123.031,3.027.772,3.738,1.863.307.471,0,1.5-.573,3.288-.674,2.1-1.6,4.984-.51,5.837Z"/><path class="d" d="M9.406,13.837l-.454-.18a3.313,3.313,0,0,1,2.705-2.17l.034.488-.017-.244.018.243A2.832,2.832,0,0,0,9.406,13.837Z"/></svg>